<svg xmlns="http://www.w3.org/2000/svg" viewBox="0 0 41 40"><g fill="#FF00E4"><path d="M20.5.591691082 8.74000006 12.4516912C8.63952053 12.5381192 8.51247117 12.5875272 8.38000006 12.5916912L4 12.5916912C1.79086101 12.5916912 0 14.3825522 0 16.5916912L0 23.4316912C0 25.6408303 1.79086101 27.4316913 4 27.4316913L8.38000006 27.4316913C8.51431046 27.4258854 8.64490011 27.4766703 8.74000006 27.5716913L20.5 39.4116914C21.0696184 39.9860141 21.9291041 40.1606719 22.6777049 39.8542272 23.4263057 39.5477824 23.9166086 38.8205795 23.9200342 38.0116913L23.9200342 2.01169109C23.9247254 1.19916094 23.4373926.464530993 22.6869632.152949178 21.9365337-.158632637 21.0721811.0147711799 20.5.591691082ZM35.1800002 6.01169112C34.804467 5.63306582 34.2932753 5.42009447 33.7600002 5.42009447 33.2267252 5.42009447 32.7155334 5.63306582 32.3400002 6.01169112 31.564553 6.79176603 31.564553 8.05161623 32.3400002 8.83169114 35.3249013 11.8106703 37.0023 15.854589 37.0023 20.0716912 37.0023 24.2887934 35.3249013 28.3327122 32.3400002 31.3116913 31.564553 32.0917662 31.564553 33.3516164 32.3400002 34.1316913 32.7155334 34.5103166 33.2267252 34.723288 33.7600002 34.723288 34.2932753 34.723288 34.804467 34.5103166 35.1800002 34.1316913 42.9362128 26.3628787 42.9362128 13.7805037 35.1800002 6.01169112Z"/><path d="M30.2800002,11.0116912 C29.7762557,10.504374 29.0401261,10.3043381 28.3489044,10.486935 C27.6576826,10.669532 27.1163816,11.207021 26.9289043,11.8969351 C26.741427,12.5868492 26.9362557,13.324374 27.4400002,13.8316912 C30.8420295,17.2493973 30.8420295,22.7739851 27.4400002,26.1916913 C26.664553,26.9717662 26.664553,28.2316164 27.4400002,29.0116913 C27.8155334,29.3903166 28.3267251,29.6032879 28.8600002,29.6032879 C29.3932753,29.6032879 29.904467,29.3903166 30.2800002,29.0116913 C35.2439033,24.0383718 35.2439033,15.9850106 30.2800002,11.0116912 Z"/></g></svg>