<svg id="piechart_-_split" xmlns="http://www.w3.org/2000/svg" viewBox="0 0 468.29 477.55"><defs><style>.cls-1{fill:#00d4b9;}.cls-2{fill:#00847a;}.cls-3{fill:#bd0092;}.cls-4{fill:#428100;}.cls-5{fill:#1d3700;}.cls-6{fill:#6ed200;}.cls-7{fill:#2b5400;}.cls-8{fill:#610065;}</style></defs><path class="cls-5" d="M232.34,24.69V239l202.87-69.28c-6.67-19.26-24.21-61.3-66.63-96.16-55.75-45.82-117.34-48.72-136.24-48.87Z"/><path class="cls-7" d="M232.34,239.01l122.03,176.2c14.88-10.75,72.74-55.19,88.45-135.66,9.58-49.06-.8-89.51-7.61-109.82l-202.87,69.28Z"/><path class="cls-4" d="M354.38,415.2l-122.03-176.2-108.35,184.95c130.96,69.81,230.38-8.76,230.38-8.76Z"/><path class="cls-6" d="M18.91,258.65l213.43-19.65-108.34,184.95c-17.41-10.22-52.92-34.3-78.43-79.5-19.45-34.46-24.92-66.72-26.65-85.8Z"/><path class="cls-3" d="M49.12,127.66l183.17,111.32-213.43,19.65c-1.68-16.43-2.27-41.54,4.93-70.82,6.51-26.48,17.02-46.78,25.33-60.14Z"/><path class="cls-8" d="M49.17,127.69l183.17,111.32c-36.22-61.55-72.43-123.09-108.65-184.64-11.86,7.5-26.07,17.9-40.53,32.02-15.05,14.7-26.09,29.24-33.99,41.3Z"/><path class="cls-1" d="M123.69,54.37c36.22,61.54,72.43,123.09,108.65,184.63-14.4-69.97-28.79-139.94-43.19-209.91-27.85,3.66-65.46,25.28-65.46,25.28Z"/><path class="cls-2" d="M188.96,29.09l43.38,209.92V24.69c-7.06-.05-14.92,.26-23.44,1.19-7.24,.79-13.91,1.92-19.94,3.2Z"/></svg>