<svg xmlns="http://www.w3.org/2000/svg" width="112" height="2" viewBox="0 0 112 2"><g fill="#D8D8D8" fill-rule="evenodd"><circle cx="1" cy="1" r="1"/><circle cx="6" cy="1" r="1"/><circle cx="11" cy="1" r="1"/><circle cx="16" cy="1" r="1"/><circle cx="26" cy="1" r="1"/><circle cx="21" cy="1" r="1"/><circle cx="31" cy="1" r="1"/><circle cx="36" cy="1" r="1"/><circle cx="46" cy="1" r="1"/><circle cx="41" cy="1" r="1"/><circle cx="51" cy="1" r="1"/><circle cx="56" cy="1" r="1"/><circle cx="66" cy="1" r="1"/><circle cx="76" cy="1" r="1"/><circle cx="61" cy="1" r="1"/><circle cx="71" cy="1" r="1"/><circle cx="81" cy="1" r="1"/><circle cx="86" cy="1" r="1"/><circle cx="96" cy="1" r="1"/><circle cx="91" cy="1" r="1"/><circle cx="101" cy="1" r="1"/><circle cx="106" cy="1" r="1"/><circle cx="111" cy="1" r="1"/></g></svg>