<svg xmlns="http://www.w3.org/2000/svg" width="350" height="48" viewBox="0 0 350 48"><g fill="none" fill-rule="evenodd"><polygon fill="#EB008B" points="12.716 12.679 15.752 12.679 15.752 0 12.716 0"/><polygon fill="#8CC63F" points="53.754 12.679 56.79 12.679 56.79 0 53.754 0"/><polygon fill="#FEFEFE" points="15.752 12.679 53.754 12.679 53.754 0 15.752 0"/><polygon fill="#EB008B" points=".064 28.606 3.1 28.606 3.1 15.927 .064 15.927"/><polygon fill="#8CC63F" points="41.102 28.606 44.138 28.606 44.138 15.927 41.102 15.927"/><polygon fill="#FEFEFE" points="3.1 28.606 41.102 28.606 41.102 15.927 3.1 15.927"/><polygon fill="#EB008B" points="0 44.533 3.036 44.533 3.036 31.853 0 31.853"/><polygon fill="#8CC63F" points="15.864 44.533 18.899 44.533 18.899 31.853 15.864 31.853"/><polygon fill="#FEFEFE" points="3.036 44.533 15.864 44.533 15.864 31.853 3.036 31.853"/><polygon fill="#FEFEFE" points="61.37 17.779 70.279 17.779 70.279 20.303 64.521 20.303 64.521 22.776 69.5 22.776 69.5 25.215 64.521 25.215 64.521 29.872 61.37 29.872"/><g fill="#FEFEFE" transform="translate(60.416 17.525)"><path d="M19.5006947 12.3469232 16.7059468 12.3469232 16.7059468 11.1445127 16.6722293 11.1445127C16.1305735 12.041834 15.0124568 12.6008923 13.9965804 12.6008923 11.4726604 12.6008923 10.7444706 11.1445127 10.7444706 8.84084426L10.7444706 3.55698153 13.6235123 3.55698153 13.6235123 8.65485403C13.6235123 9.82354702 14.1319943 10.2297888 15.0467182 10.2297888 15.6732116 10.2297888 16.621653 9.82354702 16.621653 8.26547098L16.621653 3.55698153 19.5006947 3.55698153 19.5006947 12.3469232ZM26.3102755 5.41971173 24.5319479 5.41971173 24.5319479 9.41687014C24.5319479 10.1113424 24.9387335 10.2636151 25.5652269 10.2636151 25.8023373 10.2636151 26.0563064 10.2298976 26.3102755 10.2298976L26.3102755 12.347032C25.7854785 12.3638907 25.2601377 12.4318696 24.7353407 12.4318696 22.2793996 12.4318696 21.6529062 11.7199947 21.6529062 9.33203249L21.6529062 5.41971173 20.1965266 5.41971173 20.1965266 3.5570903 21.6529062 3.5570903 21.6529062.897756339 24.5319479.897756339 24.5319479 3.5570903 26.3102755 3.5570903 26.3102755 5.41971173ZM35.9138429 12.3469232 33.119095 12.3469232 33.119095 11.1445127 33.0853774 11.1445127C32.5437217 12.041834 31.425605 12.6008923 30.4097285 12.6008923 27.8858085 12.6008923 27.1576187 11.1445127 27.1576187 8.84084426L27.1576187 3.55698153 30.0366604 3.55698153 30.0366604 8.65485403C30.0366604 9.82354702 30.5451425 10.2297888 31.4598664 10.2297888 32.0863598 10.2297888 33.0348011 9.82354702 33.0348011 8.26547098L33.0348011 3.55698153 35.9138429 3.55698153 35.9138429 12.3469232ZM37.5235828 3.55692715 40.3183307 3.55692715 40.3183307 5.09814442 40.3520483 5.09814442C40.7751488 3.98002773 41.7578516 3.38725185 42.9945235 3.38725185 43.2147751 3.38725185 43.4513416 3.40465445 43.672137 3.45523074L43.672137 6.08030334C43.2990689 5.97860693 42.9602621 5.91117188 42.5708791 5.91117188 41.148217 5.91117188 40.4031684 6.8933308 40.4031684 7.99404489L40.4031684 12.3468688 37.5235828 12.3468688 37.5235828 3.55692715ZM49.9393007 7.04565788C49.8881806 6.06349896 49.1937083 5.2504715 48.2284081 5.2504715 47.2119878 5.2504715 46.5349182 5.97866131 46.3657867 7.04565788L49.9393007 7.04565788ZM46.3657867 8.65485403C46.4158191 9.85726454 47.1108353 10.6534332 48.3301045 10.6534332 49.024033 10.6534332 49.7016465 10.3314852 49.9730182 9.68758925L52.6660697 9.68758925C52.1407289 11.7204298 50.2612487 12.6008923 48.296387 12.6008923 45.4342041 12.6008923 43.4862011 10.8736848 43.4862011 7.92666422 43.4862011 5.23361274 45.637053 3.30301242 48.2284081 3.30301242 51.3782777 3.30301242 52.9537563 5.67411591 52.8183424 8.65485403L46.3657867 8.65485403ZM58.5625037 8.28200345C58.6299388 9.70466554 59.5109451 10.1620275 60.8487696 10.1620275 61.797211 10.1620275 62.7799137 9.82322072 62.7799137 8.92589944 62.7799137 7.85890287 61.0521624 7.65551005 59.3075523 7.16443059 57.579801 6.67335113 55.7677559 5.8940412 55.7677559 3.67521041 55.7677559 1.03327904 58.4270898 0 60.6964969 0 63.1018617 0 65.5235415 1.16869298 65.5404003 3.89546199L62.3899869 3.89546199C62.441107 2.7947479 61.4078279 2.43908237 60.4425278 2.43908237 59.7649143 2.43908237 58.9181693 2.67619272 58.9181693 3.47236142 58.9181693 4.40394405 60.6622355 4.57307551 62.4242482 5.06415498 64.1688583 5.55523444 65.9297833 6.36826189 65.9297833 8.55337516 65.9297833 11.6184071 63.3215695 12.6011099 60.6622355 12.6011099 57.8848902 12.6011099 55.4289491 11.3812967 55.4120903 8.28200345L58.5625037 8.28200345Z"/><polygon points="66.863 .254 69.742 .254 69.742 6.487 72.367 3.557 75.704 3.557 72.486 6.876 76.11 12.347 72.638 12.347 70.487 8.808 69.742 9.535 69.742 12.347 66.863 12.347"/><path d="M76.5852831,12.3468144 L79.4643248,12.3468144 L79.4643248,3.55687277 L76.5852831,3.55687277 L76.5852831,12.3468144 Z M76.5852831,2.45615867 L79.4643248,2.45615867 L79.4643248,0.254186645 L76.5852831,0.254186645 L76.5852831,2.45615867 Z"/><polygon points="81.176 12.347 84.055 12.347 84.055 .254 81.176 .254"/><polygon points="85.766 12.347 88.645 12.347 88.645 .254 85.766 .254"/><path d="M92.4903843 9.45064205C92.4903843 9.89114522 92.6763745 10.2130932 92.964605 10.4333448 93.2354329 10.6361938 93.6248159 10.7378902 94.0316016 10.7378902 94.5901161 10.7378902 95.3862848 10.5007799 95.3862848 9.80630757 95.3862848 9.12923788 94.4889635 8.99328011 93.9804814 8.87472494 92.1684363 8.41790683 89.8984854 8.36678671 89.8984854 5.99568322 89.8984854 3.87854885 92.1852951 3.30263174 93.9125026 3.30263174 95.8436467 3.30263174 97.8590847 3.86169008 97.9607811 6.14795593L95.3014471 6.14795593C95.3014471 5.77543164 95.1660332 5.53832129 94.9289228 5.38604859 94.6918125 5.23377589 94.3698645 5.165797 94.0147428 5.165797 93.5405221 5.165797 92.7780709 5.21637329 92.7780709 5.82600793 92.7780709 6.65643798 94.7086712 6.80871068 96.0301808 7.09639732 97.8079645 7.45206284 98.2653265 8.739311 98.2653265 9.46750081 98.2653265 11.8217455 96.0301808 12.6010555 94.0484603 12.6010555 91.9650435 12.6010555 89.8310503 11.9065832 89.7462127 9.45064205L92.4903843 9.45064205ZM9.41643507 18.5616616C9.00964943 16.6984963 7.46843216 15.6314998 5.70750714 15.6314998 2.5059736 15.6314998 1.15129039 18.3076925 1.15129039 20.9496238 1.15129039 23.592099 2.5059736 26.2677479 5.70750714 26.2677479 7.94265286 26.2677479 9.36531495 24.5405404 9.58611037 22.3891447L10.7374008 22.3891447C10.4154528 25.3530241 8.53542873 27.2504507 5.70750714 27.2504507 1.89633896 27.2504507 0 24.25231 0 20.9496238 0 17.6469377 1.89633896 14.6493408 5.70750714 14.6493408 7.99377298 14.6493408 10.2631801 16.0214266 10.5677255 18.5616616L9.41643507 18.5616616ZM18.1570513 22.0166748C18.1059311 20.4080225 17.1069135 18.9005227 15.379706 18.9005227 13.6350959 18.9005227 12.6697957 20.4248812 12.5006643 22.0166748L18.1570513 22.0166748ZM12.5006643 22.9145399C12.517523 24.4726159 13.3300066 26.35264 15.379706 26.35264 16.937782 26.35264 17.784527 25.4379161 18.1233337 24.1169504L19.1897865 24.1169504C18.7329684 26.0986708 17.5811342 27.2505051 15.379706 27.2505051 12.6018168 27.2505051 11.4336677 25.1159681 11.4336677 22.6263094 11.4336677 20.3231848 12.6018168 18.0026576 15.379706 18.0026576 18.1907688 18.0026576 19.3088855 20.4585988 19.2240478 22.9145399L12.5006643 22.9145399ZM20.22399 18.2568443 21.2909866 18.2568443 21.2909866 19.7638002 21.3247041 19.7638002C21.714631 18.7142062 22.883324 18.0028752 24.119452 18.0028752 26.5753932 18.0028752 27.3204417 19.2901233 27.3204417 21.3729963L27.3204417 26.9962097 26.2534452 26.9962097 26.2534452 21.5426716C26.2534452 20.0351719 25.7629095 18.9007403 24.0351582 18.9007403 22.3416682 18.9007403 21.3247041 20.1874446 21.2909866 21.8983372L21.2909866 26.9962097 20.22399 26.9962097 20.22399 18.2568443ZM30.607248 18.2568443 32.3855756 18.2568443 32.3855756 19.1541655 30.607248 19.1541655 30.607248 25.0482067C30.607248 25.742679 30.7089444 26.1494647 31.4708517 26.200041 31.7753971 26.200041 32.0804864 26.1831822 32.3855756 26.1494647L32.3855756 27.0636447C32.0636276 27.0636447 31.7585384 27.0979061 31.4365904 27.0979061 30.0144721 27.0979061 29.5233927 26.6236854 29.5402514 25.1330444L29.5402514 19.1541655 28.0153491 19.1541655 28.0153491 18.2568443 29.5402514 18.2568443 29.5402514 15.6317717 30.607248 15.6317717 30.607248 18.2568443ZM33.5038011 18.2568443 34.48596 18.2568443 34.48596 20.3059998 34.5196775 20.3059998C35.0618771 18.9007403 36.2474288 18.0703102 37.8223636 18.1382891L37.8223636 19.2052857C35.8917633 19.1035893 34.5707976 20.5262513 34.5707976 22.3382965L34.5707976 26.9962097 33.5038011 26.9962097 33.5038011 18.2568443ZM44.3947797 22.0166748C44.3436596 20.4080225 43.3440981 18.9005227 41.6174344 18.9005227 39.8728243 18.9005227 38.9069803 20.4248812 38.7378489 22.0166748L44.3947797 22.0166748ZM38.7378489 22.9145399C38.7547076 24.4726159 39.5677351 26.35264 41.6174344 26.35264 43.1749666 26.35264 44.0217116 25.4379161 44.3610622 24.1169504L45.4275149 24.1169504C44.9706968 26.0986708 43.8183188 27.2505051 41.6174344 27.2505051 38.8390015 27.2505051 37.6708523 25.1159681 37.6708523 22.6263094 37.6708523 20.3231848 38.8390015 18.0026576 41.6174344 18.0026576 44.4284972 18.0026576 45.5460701 20.4585988 45.4617763 22.9145399L38.7378489 22.9145399ZM124.163759 3.91248391C123.756973 2.04931864 122.215756.982322072 120.454831.982322072 117.253297.982322072 115.898614 3.65851479 115.898614 6.30044616 115.898614 8.94292135 117.253297 11.6185702 120.454831 11.6185702 122.69052 11.6185702 124.113182 9.89136275 124.333434 7.74051085L125.484724 7.74051085C125.162776 10.7038464 123.282752 12.601273 120.454831 12.601273 116.643663 12.601273 114.747324 9.60313228 114.747324 6.30044616 114.747324 2.99776004 116.643663.000163149323 120.454831.000163149323 122.741097.000163149323 125.010504 1.37224895 125.315593 3.91248391L124.163759 3.91248391ZM132.904321 7.36749711C132.8532 5.75884479 131.854183 4.25134505 130.126975 4.25134505 128.382365 4.25134505 127.417065 5.77570355 127.24739 7.36749711L132.904321 7.36749711ZM127.24739 8.26536222C127.264248 9.82343825 128.077276 11.7034623 130.126975 11.7034623 131.684507 11.7034623 132.531796 10.7887384 132.870603 9.46777273L133.937056 9.46777273C133.480238 11.4494932 132.328403 12.6013274 130.126975 12.6013274 127.349086 12.6013274 126.180393 10.4667904 126.180393 7.97713175 126.180393 5.67400714 127.349086 3.35347994 130.126975 3.35347994 132.938038 3.35347994 134.056155 5.80942108 133.971317 8.26536222L127.24739 8.26536222ZM134.971586 3.60766659 136.038582 3.60766659 136.038582 5.1146225 136.0723 5.1146225C136.462227 4.06502852 137.63092 3.35369748 138.867048 3.35369748 141.322989 3.35369748 142.068037 4.64094563 142.068037 6.72381865L142.068037 12.347032 141.001041 12.347032 141.001041 6.89349395C141.001041 5.38599421 140.509961 4.25156258 138.78221 4.25156258 137.08872 4.25156258 136.0723 5.53826691 136.038582 7.24915947L136.038582 12.347032 134.971586 12.347032 134.971586 3.60766659ZM145.354572 3.60766659 147.132899 3.60766659 147.132899 4.50498786 145.354572 4.50498786 145.354572 10.3990291C145.354572 11.0935013 145.456268 11.500287 146.218175 11.5508633 146.523265 11.5508633 146.82781 11.5340045 147.132899 11.500287L147.132899 12.414467C146.810951 12.414467 146.506406 12.4487284 146.184458 12.4487284 144.761796 12.4487284 144.270716 11.9745077 144.287575 10.4838667L144.287575 4.50498786 142.763217 4.50498786 142.763217 3.60766659 144.287575 3.60766659 144.287575.982593987 145.354572.982593987 145.354572 3.60766659ZM148.251125 3.60766659 149.233284 3.60766659 149.233284 5.65682208 149.267545 5.65682208C149.809201 4.25156258 150.994752 3.42113253 152.569687 3.48911141L152.569687 4.55610798C150.639087 4.45441157 149.318121 5.87707367 149.318121 7.68911881L149.318121 12.347032 148.251125 12.347032 148.251125 3.60766659ZM159.141777 7.36749711C159.090657 5.75884479 158.091639 4.25134505 156.364432 4.25134505 154.619822 4.25134505 153.654522 5.77570355 153.484846 7.36749711L159.141777 7.36749711ZM153.484846 8.26536222C153.501705 9.82343825 154.314732 11.7034623 156.364432 11.7034623 157.921964 11.7034623 158.769253 10.7887384 159.10806 9.46777273L160.174512 9.46777273C159.717694 11.4494932 158.56586 12.6013274 156.364432 12.6013274 153.586543 12.6013274 152.41785 10.4667904 152.41785 7.97713175 152.41785 5.67400714 153.586543 3.35347994 156.364432 3.35347994 159.175495 3.35347994 160.293611 5.80942108 160.208774 8.26536222L153.484846 8.26536222ZM169.068054 11.7032447C171.337461 11.7032447 172.13363 9.78950319 172.13363 7.97691422 172.13363 6.16486907 171.337461 4.25112752 169.068054 4.25112752 167.035757 4.25112752 166.205871 6.16486907 166.205871 7.97691422 166.205871 9.78950319 167.035757 11.7032447 169.068054 11.7032447L169.068054 11.7032447ZM173.200626 12.3471407 172.217923 12.3471407 172.217923 10.6868245 172.184206 10.6868245C171.727388 11.8217999 170.338443 12.6011099 169.068054 12.6011099 166.40872 12.6011099 165.138874 10.4497141 165.138874 7.97691422 165.138874 5.50465815 166.40872 3.35326241 169.068054 3.35326241 170.372161 3.35326241 171.64255 4.01401717 172.099912 5.2675478L172.13363 5.2675478 172.13363.253969112 173.200626.253969112 173.200626 12.3471407ZM181.093953 7.36749711C181.042833 5.75884479 180.043816 4.25134505 178.316608 4.25134505 176.571998 4.25134505 175.606698 5.77570355 175.437023 7.36749711L181.093953 7.36749711ZM175.437023 8.26536222C175.453881 9.82343825 176.266909 11.7034623 178.316608 11.7034623 179.87414 11.7034623 180.721429 10.7887384 181.060236 9.46777273L182.126689 9.46777273C181.669871 11.4494932 180.518036 12.6013274 178.316608 12.6013274 175.538719 12.6013274 174.370026 10.4667904 174.370026 7.97713175 174.370026 5.67400714 175.538719 3.35347994 178.316608 3.35347994 181.127671 3.35347994 182.245788 5.80942108 182.16095 8.26536222L175.437023 8.26536222ZM188.411473 6.1650866C188.360896 4.84412092 187.344476 4.25134505 186.125207 4.25134505 185.176765 4.25134505 184.058649 4.62386934 184.058649 5.75830096 184.058649 6.70728619 185.142504 7.04554912 185.871238 7.23208317L187.2939 7.55403117C188.513169 7.7400214 189.783558 8.45135245 189.783558 9.97571095 189.783558 11.8725937 187.903534 12.6007836 186.277479 12.6007836 184.245183 12.6007836 182.856238 11.6523422 182.687107 9.51889285L183.754103 9.51889285C183.838397 10.9578699 184.905937 11.7034623 186.328056 11.7034623 187.327617 11.7034623 188.716562 11.2629591 188.716562 10.0436898 188.716562 9.02726955 187.76812 8.68846279 186.80282 8.45135245L185.430734 8.14680704C184.04179 7.77373893 182.991652 7.29951823 182.991652 5.80942108 182.991652 4.03109346 184.736262 3.35347994 186.277479 3.35347994 188.022089 3.35347994 189.41049 4.26820381 189.478469 6.1650866L188.411473 6.1650866ZM123.215209 19.22209C123.045533 18.0028208 122.097636 17.3589248 120.77667 17.3589248 118.743829 17.3589248 117.965063 19.1541112 117.965063 20.9498414 117.965063 22.7450278 118.743829 24.5402141 120.77667 24.5402141 122.249908 24.5402141 123.096653 23.6934691 123.215209 22.3045246L126.365622 22.3045246C126.195947 25.4206766 123.909681 27.2501244 120.844105 27.2501244 117.185753 27.2501244 114.81465 24.4559203 114.81465 20.9498414 114.81465 17.4437624 117.185753 14.6490145 120.844105 14.6490145 123.452319 14.6490145 126.280784 16.3093308 126.365622 19.22209L123.215209 19.22209ZM131.701692 25.0483699C133.039517 25.0483699 133.463161 23.7274042 133.463161 22.6098313 133.463161 21.4917147 133.039517 20.1538902 131.701692 20.1538902 130.363868 20.1538902 129.957082 21.4917147 129.957082 22.6098313 129.957082 23.7274042 130.363868 25.0483699 131.701692 25.0483699M131.701692 17.9519182C134.428462 17.9519182 136.342203 19.9673562 136.342203 22.6098313 136.342203 25.2517627 134.428462 27.2503419 131.701692 27.2503419 128.974923 27.2503419 127.078041 25.2517627 127.078041 22.6098313 127.078041 19.9673562 128.974923 17.9519182 131.701692 17.9519182M137.427581 18.2061048 140.221785 18.2061048 140.221785 19.4085153 140.256047 19.4085153C140.780844 18.527509 141.712426 17.9521357 142.779423 17.9521357 143.880137 17.9521357 144.86284 18.3078012 145.336516 19.374254 146.030989 18.4432152 146.895136 17.9521357 148.080688 17.9521357 150.875436 17.9521357 151.179981 20.0687263 151.179981 21.7459013L151.179981 26.9960465 148.30094 26.9960465 148.30094 21.8307389C148.30094 20.8817537 147.843578 20.3232392 147.098529 20.3232392 145.861857 20.3232392 145.743302 21.2716806 145.743302 22.6943427L145.743302 26.9960465 142.86426 26.9960465 142.86426 21.9998704C142.86426 20.9665914 142.559171 20.3232392 141.779861 20.3232392 140.747126 20.3232392 140.306623 20.9160151 140.306623 22.7112015L140.306623 26.9960465 137.427581 26.9960465 137.427581 18.2061048ZM155.466675 22.5079174C155.466675 24.0491347 155.907179 25.0481524 157.211286 25.0481524 158.498534 25.0481524 158.938493 23.7103279 158.938493 22.5079174 158.938493 21.3898007 158.498534 20.1536727 157.228144 20.1536727 156.448834 20.1536727 155.466675 20.6953284 155.466675 22.5079174L155.466675 22.5079174ZM152.68933 18.2062136 155.432958 18.2062136 155.432958 19.22209 155.466675 19.22209C156.02519 18.3922038 156.871935 17.9522445 157.888355 17.9522445 160.649386 17.9522445 161.818079 20.3228041 161.818079 22.795604 161.818079 25.0824137 160.598265 27.2501244 158.108607 27.2501244 157.024751 27.2501244 156.194865 26.8438826 155.602089 26.0477139L155.568372 26.0477139 155.568372 29.9431759 152.68933 29.9431759 152.68933 18.2062136ZM170.100735 14.7339066 167.441401 17.2578266 165.409648 17.2578266 167.052018 14.7339066 170.100735 14.7339066ZM168.966303 21.6949443C168.915183 20.7127854 168.220711 19.8997579 167.25541 19.8997579 166.23899 19.8997579 165.56192 20.6279478 165.392245 21.6949443L168.966303 21.6949443ZM165.392245 23.3041405C165.443365 24.506551 166.137294 25.3027197 167.357107 25.3027197 168.051035 25.3027197 168.729193 24.9807717 169.000021 24.3368757L171.692528 24.3368757C171.167731 26.3697163 169.287707 27.2501788 167.323389 27.2501788 164.460663 27.2501788 162.513203 25.5224274 162.513203 22.5754068 162.513203 19.8828992 164.664055 17.951755 167.25541 17.951755 170.405824 17.951755 171.980759 20.3228585 171.845345 23.3041405L165.392245 23.3041405ZM178.163411 20.0688894 176.385083 20.0688894 176.385083 24.0660478C176.385083 24.7605201 176.791869 24.9127928 177.418362 24.9127928 177.655473 24.9127928 177.909442 24.8790753 178.163411 24.8790753L178.163411 26.9962097C177.638614 27.0130684 177.113273 27.0810473 176.588476 27.0810473 174.132535 27.0810473 173.506042 26.3691724 173.506042 23.9812102L173.506042 20.0688894 172.049118 20.0688894 172.049118 18.206268 173.506042 18.206268 173.506042 15.546934 176.385083 15.546934 176.385083 18.206268 178.163411 18.206268 178.163411 20.0688894ZM185.057394 21.6948356C185.006274 20.7126766 184.311802 19.8996492 183.346502 19.8996492 182.330625 19.8996492 181.653012 20.627839 181.48388 21.6948356L185.057394 21.6948356ZM181.48388 23.3040317C181.534457 24.5064422 182.228929 25.3026109 183.448198 25.3026109 184.142671 25.3026109 184.820284 24.9806629 185.091112 24.3367669L187.784163 24.3367669C187.258823 26.3696075 185.379342 27.25007 183.414481 27.25007 180.552298 27.25007 178.604295 25.5228625 178.604295 22.5758419 178.604295 19.8827904 180.755147 17.9521901 183.346502 17.9521901 186.496915 17.9521901 188.07185 20.3232936 187.936436 23.3040317L181.48388 23.3040317ZM188.953727 18.2061048 191.747931 18.2061048 191.747931 19.4085153 191.782192 19.4085153C192.306989 18.5111941 193.492541 17.9521357 194.542678 17.9521357 197.47284 17.9521357 197.709951 20.0861289 197.709951 21.3559744L197.709951 26.9960465 194.830909 26.9960465 194.830909 22.744919C194.830909 21.5425085 194.966323 20.3232392 193.390844 20.3232392 192.306989 20.3232392 191.832768 21.2374192 191.832768 22.2032632L191.832768 26.9960465 188.953727 26.9960465 188.953727 18.2061048ZM204.925828 21.4239533C204.908969 20.6789047 204.248214 20.1535639 203.520024 20.1535639 201.911372 20.1535639 201.656859 21.5256497 201.656859 22.744919 201.656859 23.8798944 202.147939 25.0485874 203.367752 25.0485874 204.366769 25.0485874 204.874708 24.4726703 205.010121 23.5410877L207.804869 23.5410877C207.5509 25.8953324 205.721453 27.2500156 203.38461 27.2500156 200.742679 27.2500156 198.777817 25.4379705 198.777817 22.744919 198.777817 19.9507149 200.556145 17.9521357 203.38461 17.9521357 205.56918 17.9521357 207.517183 19.1034261 207.720576 21.4239533L204.925828 21.4239533ZM214.851832 21.6948356C214.800712 20.7126766 214.10624 19.8996492 213.14094 19.8996492 212.125063 19.8996492 211.44745 20.627839 211.278318 21.6948356L214.851832 21.6948356ZM211.278318 23.3040317C211.328895 24.5064422 212.023367 25.3026109 213.242636 25.3026109 213.937109 25.3026109 214.614722 24.9806629 214.88555 24.3367669L217.578601 24.3367669C217.053261 26.3696075 215.17378 27.25007 213.208919 27.25007 210.346736 27.25007 208.398733 25.5228625 208.398733 22.5758419 208.398733 19.8827904 210.549585 17.9521901 213.14094 17.9521901 216.291353 17.9521901 217.866288 20.3232936 217.730874 23.3040317L211.278318 23.3040317ZM220.983745 24.0998197C220.983745 24.5403229 221.169736 24.8622709 221.457966 25.0825225 221.728794 25.2853715 222.118177 25.3870679 222.524963 25.3870679 223.084021 25.3870679 223.879646 25.1499575 223.879646 24.4554853 223.879646 23.7784156 222.982325 23.6424578 222.473843 23.5239026 220.661797 23.0670845 218.39239 23.0159644 218.39239 20.6448609 218.39239 18.5277265 220.678656 17.9518094 222.406407 17.9518094 224.337008 17.9518094 226.352446 18.5108678 226.454142 20.7971336L223.794808 20.7971336C223.794808 20.4246093 223.659394 20.187499 223.422284 20.0352263 223.185174 19.8829536 222.863769 19.8149747 222.508104 19.8149747 222.033883 19.8149747 221.271432 19.865551 221.271432 20.4751856 221.271432 21.3050718 223.202576 21.4578884 224.523542 21.745575 226.301869 22.1012405 226.759231 23.3884887 226.759231 24.1166785 226.759231 26.4709232 224.523542 27.2502331 222.541821 27.2502331 220.458405 27.2502331 218.324411 26.5557609 218.240118 24.0998197L220.983745 24.0998197ZM233.281017 20.0688894 231.892072 20.0688894 231.892072 18.206268 233.281017 18.206268C233.281017 15.682348 234.162023 14.903038 236.617964 14.903038 237.075326 14.903038 237.549547 14.9372994 238.006365 14.9541581L238.006365 16.9864549C237.734993 16.9527374 237.481568 16.9358786 237.227599 16.9358786 236.566844 16.9358786 236.160602 17.0207162 236.160602 17.8163411L236.160602 18.206268 237.88781 18.206268 237.88781 20.0688894 236.160602 20.0688894 236.160602 26.9962097 233.281017 26.9962097 233.281017 20.0688894ZM247.237408 26.9961009 244.44266 26.9961009 244.44266 25.7936904 244.409486 25.7936904C243.867287 26.6910117 242.74917 27.25007 241.733294 27.25007 239.209374 27.25007 238.481184 25.7936904 238.481184 23.4900219L238.481184 18.2061592 241.360226 18.2061592 241.360226 23.3040317C241.360226 24.4727247 241.868708 24.8789665 242.783432 24.8789665 243.409925 24.8789665 244.358366 24.4727247 244.358366 22.9146487L244.358366 18.2061592 247.237408 18.2061592 247.237408 26.9961009ZM254.047478 20.0688894 252.268607 20.0688894 252.268607 24.0660478C252.268607 24.7605201 252.675393 24.9127928 253.301886 24.9127928 253.538996 24.9127928 253.792965 24.8790753 254.047478 24.8790753L254.047478 26.9962097C253.522137 27.0130684 252.996797 27.0810473 252.472544 27.0810473 250.016602 27.0810473 249.390109 26.3691724 249.390109 23.9812102L249.390109 20.0688894 247.933186 20.0688894 247.933186 18.206268 249.390109 18.206268 249.390109 15.546934 252.268607 15.546934 252.268607 18.206268 254.047478 18.206268 254.047478 20.0688894ZM263.6511 26.9961009 260.856352 26.9961009 260.856352 25.7936904 260.823178 25.7936904C260.280979 26.6910117 259.162862 27.25007 258.146986 27.25007 255.623066 27.25007 254.894876 25.7936904 254.894876 23.4900219L254.894876 18.2061592 257.773918 18.2061592 257.773918 23.3040317C257.773918 24.4727247 258.2824 24.8789665 259.197124 24.8789665 259.823617 24.8789665 260.772058 24.4727247 260.772058 22.9146487L260.772058 18.2061592 263.6511 18.2061592 263.6511 26.9961009ZM265.26084 18.2061048 268.055588 18.2061048 268.055588 19.7473221 268.089305 19.7473221C268.512406 18.6292054 269.495109 18.0364295 270.731781 18.0364295 270.951488 18.0364295 271.188599 18.0532883 271.40885 18.1044084L271.40885 20.729481C271.036326 20.6277846 270.697519 20.5603496 270.308136 20.5603496 268.885474 20.5603496 268.140426 21.5425085 268.140426 22.6432226L268.140426 26.9960465 265.26084 26.9960465 265.26084 18.2061048ZM277.676503 21.6948356C277.625383 20.7126766 276.931455 19.8996492 275.965611 19.8996492 274.949191 19.8996492 274.272121 20.627839 274.102989 21.6948356L277.676503 21.6948356ZM274.102989 23.3040317C274.153566 24.5064422 274.848038 25.3026109 276.067307 25.3026109 276.76178 25.3026109 277.438849 24.9806629 277.710221 24.3367669L280.403272 24.3367669C279.878476 26.3696075 277.998451 27.25007 276.03359 27.25007 273.171407 27.25007 271.223948 25.5228625 271.223948 22.5758419 271.223948 19.8827904 273.3748 17.9521901 275.965611 17.9521901 279.116024 17.9521901 280.690959 20.3232936 280.555545 23.3040317L274.102989 23.3040317ZM283.808416 24.0998197C283.808416 24.5403229 283.99495 24.8622709 284.282637 25.0825225 284.554009 25.2853715 284.943392 25.3870679 285.349634 25.3870679 285.908692 25.3870679 286.704861 25.1499575 286.704861 24.4554853 286.704861 23.7784156 285.806996 23.6424578 285.299057 23.5239026 283.486468 23.0670845 281.217061 23.0159644 281.217061 20.6448609 281.217061 18.5277265 283.503327 17.9518094 285.231078 17.9518094 287.162223 17.9518094 289.177661 18.5108678 289.279357 20.7971336L286.620023 20.7971336C286.620023 20.4246093 286.484609 20.187499 286.247499 20.0352263 286.010388 19.8829536 285.68844 19.8149747 285.332775 19.8149747 284.859098 19.8149747 284.096103 19.865551 284.096103 20.4751856 284.096103 21.3050718 286.027247 21.4578884 287.348213 21.745575 289.12654 22.1012405 289.583902 23.3884887 289.583902 24.1166785 289.583902 26.4709232 287.348213 27.2502331 285.366492 27.2502331 283.283619 27.2502331 281.149626 26.5557609 281.064789 24.0998197L283.808416 24.0998197Z"/></g></g></svg>