<svg version="1.1" id="Hexagon" xmlns="http://www.w3.org/2000/svg" xmlns:xlink="http://www.w3.org/1999/xlink" x="0px" y="0px"
	 viewBox="0 0 454.9 560.2" style="enable-background:new 0 0 454.9 560.2;" xml:space="preserve">

<g class="Hexagon_Wrap">
	<g class="hexagon">
		<path id="Hegagon-06" class="st0" d="M135.3,420.4l-0.1-0.1l-70.7-40.8v-81.7l0.1-0.1l70.7-40.8l0.1,0.1l70.6,40.8v81.7l-0.1,0.1
			L135.3,420.4L135.3,420.4z M65,379.2l70.2,40.5l70.2-40.5v-81.1l-70.2-40.5L65,298.1V379.2z"/>
		
		<rect id="Hex-line-03" x="135" y="257.2" class="st0" width="0.6" height="162.8"/>
		<rect id="Hex-line-02" x="54" y="338.6" transform="matrix(0.8661 -0.4998 0.4998 0.8661 -151.235 113.0575)" class="st0" width="162.8" height="0.6"/>
		<rect id="Hex-line-01" x="135.2" y="257.4" transform="matrix(0.5 -0.866 0.866 0.5 -225.6931 286.7167)" class="st0" width="0.6" height="162.8"/>
	</g>
	
	<g class="hexagon">
		<path id="Hexagon-05" class="st0" d="M276.5,420.4l-0.1-0.1l-70.6-40.8v-81.7l0.1-0.1l70.7-40.8l0.1,0.1l70.6,40.8v81.7l-0.1,0.1
			L276.5,420.4z M206.2,379.2l70.2,40.5l70.2-40.5v-81.1l-70.2-40.5l-70.2,40.5V379.2z"/>
	</g>
		
	<g class="hexagon">
		<path id="Hexagon-04" class="st0" d="M205.9,297.9l-0.1-0.1L135.2,257v-81.7l0.1-0.1l70.7-40.8l0.1,0.1l70.7,40.8V257l-0.1,0.1
			L205.9,297.9L205.9,297.9z M135.7,256.7l70.2,40.5l70.2-40.5v-81.1L206,135.1l-70.2,40.5V256.7z"/>
	</g>
	
	<g class="hexagon">
		<path id="Hexagon-03" class="st0" d="M347,542.7l-0.1-0.1l-70.6-40.8V420l0.1-0.1l70.6-40.8l0.1,0.1l70.6,40.8v81.7l-0.1,0.1
			L347,542.7L347,542.7z M276.7,501.5L347,542l70.2-40.5v-81.1L347,379.8l-70.2,40.5V501.5L276.7,501.5z"/>
	</g>
	
	<g class="hexagon">
		<path id="Hexagon-02" class="st0" d="M135.4,175.5l-0.1-0.1l-70.7-40.8V52.9l0.1-0.1L135.4,12l0.1,0.1l70.6,40.8v81.7l-0.1,0.1
			L135.4,175.5L135.4,175.5z M65.2,134.3l70.2,40.5l70.2-40.5V53.2l-70.2-40.6L65.2,53.2C65.2,53.2,65.2,134.3,65.2,134.3z"/>
	</g>
	
	<g class="hexagon">
		<path id="Hexagon-01" class="st0" d="M347,298.2l-0.1-0.1l-70.6-40.8v-81.7l0.1-0.1l70.6-40.8l0.1,0.1l70.6,40.8v81.7l-0.1,0.1
			L347,298.2z M276.7,257.1l70.2,40.5l70.2-40.5V176L347,135.4L276.7,176V257.1z"/>
	</g>
</g>
</svg>
