<svg xmlns="http://www.w3.org/2000/svg" viewBox="0 0 74 108"><g class="insights--svg"><polygon points="21.583 81.848 21.583 99.744 30.228 99.744 30.228 108 43.311 108 43.311 99.744 52.013 99.744 52.013 81.848"/><path d="M37.1441179,0 L36.9134091,0 C16.4956797,0.0576859299 0,15.8059448 0,35.1884172 C0,49.2637841 8.70925745,61.3778294 21.2252102,67.0310505 L21.2252102,74.1264199 L33.5104542,74.1264199 L33.5104542,44.8219675 C30.3958853,43.4375052 28.2041516,40.4378368 28.2041516,36.976681 C28.2041516,32.3618067 32.1838785,28.6122212 37.0287635,28.6122212 C41.9313256,28.6122212 45.8533753,32.3618067 45.8533753,36.976681 C45.8533753,40.4378368 43.6616417,43.3798193 40.4893956,44.7065957 L40.4893956,74.011048 L52.7746395,74.011048 L52.7746395,66.9733646 C65.3482695,61.3201435 74,49.2060982 74,35.1307313 C74.0575269,15.7482589 57.5041701,0.0576859299 37.1441179,0"/></g></svg>