<svg xmlns="http://www.w3.org/2000/svg" viewBox="0 0 22 22"><path d="M10.52,0 L6.77,3.75 C7.23,3.87 7.68,4.11 8.05,4.48 C9.1,5.54 9.16,7.19 8.18,8.18 C7.71,8.65 7.09,8.88 6.45,8.88 C5.75,8.88 5.04,8.6 4.48,8.05 C4.11,7.68 3.87,7.24 3.75,6.77 L0,10.52 L11.27,21.8 L15.03,18.04 C14.43,17.88 13.87,17.53 13.47,16.99 C12.58,15.79 12.78,14.17 13.92,13.36 C14.35,13.06 14.85,12.91 15.35,12.91 C16.19,12.91 17.04,13.31 17.59,14.06 C17.81,14.36 17.96,14.68 18.05,15.01 L21.8,11.26 L17.79,7.24 C18.12,7.18 18.43,7.04 18.71,6.84 C19.85,6.03 20.05,4.41 19.16,3.21 C18.6,2.46 17.75,2.06 16.92,2.06 C16.42,2.06 15.92,2.21 15.49,2.51 C14.98,2.87 14.65,3.41 14.54,3.99 L10.52,0 Z"/ class="solutions--svg"></svg>