<svg xmlns="http://www.w3.org/2000/svg" viewBox="0 0 22 22"><path d="M12.67,0 L8.4,0 L8.4,2.66 C7.74,2.84 7.09,3.11 6.48,3.46 L4.6,1.57 L1.58,4.59 L3.46,6.47 C3.11,7.08 2.84,7.72 2.66,8.39 L0,8.39 L0,12.66 L2.66,12.66 C2.84,13.32 3.11,13.97 3.46,14.58 L1.58,16.46 L4.6,19.48 L6.48,17.6 C7.09,17.95 7.73,18.22 8.4,18.4 L8.4,21.06 L12.67,21.06 L12.67,18.4 C13.33,18.22 13.98,17.95 14.59,17.6 L16.47,19.48 L19.49,16.46 L17.61,14.58 C17.96,13.97 18.23,13.33 18.41,12.66 L21.07,12.66 L21.07,8.39 L18.41,8.39 C18.23,7.73 17.96,7.08 17.61,6.47 L19.49,4.59 L16.47,1.57 L14.59,3.45 C13.98,3.1 13.34,2.83 12.67,2.65 L12.67,0 Z M10.53,15.56 C7.75,15.56 5.5,13.31 5.5,10.53 C5.5,7.75 7.75,5.5 10.53,5.5 C13.31,5.5 15.56,7.75 15.56,10.53 C15.56,13.31 13.31,15.56 10.53,15.56" class="systems--svg"/></svg>