<svg xmlns="http://www.w3.org/2000/svg" width="600" height="509" viewBox="0 0 600 509"><g fill="none" fill-rule="evenodd" transform="translate(0 .324)"><g fill="#FFCCFA" fill-rule="nonzero"><polygon points="555.866 383.353 556.423 382.796 552.513 384.192 551.675 383.635 549.161 385.309 549.442 380.557 548.604 379.161 545.529 376.365 544.691 377.483 545.251 379.161 544.413 380.279 543.853 392.022 548.322 395.657 556.145 390.905 555.588 386.988 557.821 385.87"/><polygon points="598.602 338.617 597.767 332.743 594.414 331.626 593.854 335.261 592.738 336.939 591.339 335.817 591.621 332.465 591.061 331.065 591.621 329.387 590.501 328.548 589.107 329.948 589.107 337.217 589.945 338.335 589.385 338.056 586.592 336.378 587.152 334.982 586.314 333.861 583.799 333.861 583.521 333.582 585.754 330.787 585.754 329.948 586.592 329.108 586.032 324.356 584.915 324.074 584.915 325.474 583.521 327.152 583.799 329.108 581.284 330.226 581.562 328.269 580.446 327.152 578.213 327.43 577.375 326.591 578.213 322.117 577.375 321.278 575.138 321 569.275 323.795 569.275 325.195 566.76 328.83 564.805 326.591 564.245 327.991 562.29 329.387 557.821 328.269 558.937 326.313 559.776 324.356 559.219 322.956 557.821 324.074 555.588 324.913 555.028 324.634 553.352 324.913 554.19 327.709 553.074 329.387 553.912 332.743 551.397 329.108 550.837 320.439 548.322 317.365 549.442 316.804 550.281 317.643 549.721 312.891 549.161 311.491 547.488 313.451 546.928 312.052 549.161 309.534 548.882 307.017 546.65 307.017 546.368 308.138 545.251 308.138 543.018 315.408 542.736 322.956 543.297 326.873 546.089 337.496 545.529 341.413 547.766 343.926 548.882 344.487 547.206 345.326 547.206 350.078 547.766 352.039 545.529 352.039 543.853 354.274 545.529 355.113 547.488 353.713 547.766 353.156 549.161 352.039 549.999 353.156 549.161 353.713 549.161 358.469 547.488 361.822 549.442 363.222 549.161 364.618 551.119 364.618 553.074 363.782 556.423 360.148 558.937 358.187 560.336 357.909 563.407 355.674 565.361 355.952 567.876 354.552 568.993 352.317 572.067 349.239 572.906 347.843 573.744 347.004 574.86 347.843 575.138 350.078 578.213 348.682 577.653 346.444 579.89 344.208 581.844 345.326 580.446 347.283 579.89 351.757 578.213 355.391 579.608 356.791 583.799 353.156 584.077 352.039 583.521 347.004 585.476 344.765 584.077 338.895 584.915 338.335 586.314 338.335 588.828 341.131 590.783 344.765 590.501 346.444 592.178 348.122 593.298 347.565 593.854 342.809 594.971 342.252 594.971 344.487 598.045 347.283 598.602 345.326 600 343.926 600 342.53"/><polygon points="524.581 399.292 530.727 399.013 531.565 400.692 532.403 400.692 532.681 399.013 537.151 398.453 537.989 397.057 536.312 394.257 536.312 393.14 537.711 391.183 537.429 389.505 534.358 391.744 532.96 392.583 532.403 391.183 531.005 391.744 530.449 393.422 528.212 393.979 527.934 394.818 524.581 395.096 523.743 396.218 522.626 395.379 521.51 395.096 518.435 392.022 517.879 395.657 517.319 396.775 522.348 399.292"/><polygon points="534.08 373.566 531.283 377.483 531.843 381.118 532.96 381.396 534.358 380.557 532.96 378.879 532.681 377.201 534.358 374.965"/><polygon points="523.464 361.265 523.743 359.309 522.066 358.187 517.597 357.909 513.127 357.348 510.895 358.469 508.102 357.909 498.881 361.265 504.471 362.104 507.264 364.061 514.248 363.782 517.879 362.104"/><path d="M381.283047,388.948009 L377.930084,389.508664 L373.460719,386.712913 L368.431274,381.678304 L367.314873,381.95675 L363.96191,378.043452 L358.376143,372.45195 L356.699662,372.45195 L356.977822,367.138895 L355.301341,361.82584 L352.786618,355.395236 L352.786618,350.921283 L353.90302,350.360627 L351.948377,345.608227 L350.831976,346.725775 L348.317253,346.725775 L344.96429,345.886674 L344.68613,346.16512 L331.278035,347.282668 L324.854028,343.647815 L323.455707,343.926262 L318.708182,341.691166 L315.355219,341.691166 L312.562336,340.852065 L312.284175,339.734517 L308.653051,334.982117 L303.582258,331.806324 L303.578499,331.576794 L303.367999,331.298348 L303.195088,331.561743 L303.138704,331.399943 L303.071044,331.351027 L302.87558,331.614422 L302.860544,331.614422 L302.950758,331.509064 L302.759053,331.614422 L302.702669,331.61066 L297.207117,331.35479 L293.297832,328.559039 L288.268387,327.719938 L282.682621,331.35479 L278.773337,329.955033 L279.611577,328.27683 L277.096855,316.811618 L274.864052,314.015867 L275.702293,310.659461 L273.18757,309.82036 L271.789249,310.937908 L265.643403,310.659461 L265.643403,308.981258 L263.688761,306.7424 L264.248841,303.668203 L263.985716,295.280951 L264.124796,295.280951 L264.136073,295.119151 L264.248841,295.280951 L265.647162,291.367652 L265.369001,289.411003 L267.323644,288.011246 L270.116527,278.224237 L269.556447,277.106689 L272.90941,274.310938 L271.232928,272.911182 L278.773337,265.919923 L277.656935,264.802376 L280.727979,263.963274 L278.213256,261.724416 L279.051497,260.606868 L283.520862,260.885314 L286.313745,257.811117 L286.873825,255.293813 L280.171658,250.819859 L278.495176,251.65896 L271.793008,247.745662 L269.560205,248.306317 L271.793008,246.071222 L277.938855,249.706074 L281.291818,249.427628 L286.039343,251.662723 L289.392307,250.262966 L290.230548,245.789013 L292.18519,245.228357 L295.538153,245.789013 L300.285678,242.432607 L300.845759,238.519308 L302.24408,236.841105 L303.920561,229.849847 L294.143591,229.289191 L288.835985,224.815238 L284.644781,223.415481 L284.644781,222.297933 L290.230548,222.858588 L296.376394,227.054096 L302.24408,227.614751 L306.991605,221.741041 L306.713444,220.901939 L308.111765,217.827742 L306.995364,216.427985 L303.642401,215.028229 L303.36424,212.510924 L308.950006,213.350025 L310.626488,215.306675 L313.697532,215.86733 L314.535772,214.189127 L317.328656,215.588884 L318.726977,215.310438 L317.050495,213.075342 L317.050495,211.118693 L319.005137,212.796896 L322.636261,210.5618 L325.707305,203.570542 L327.105626,203.570542 L326.827465,197.139939 L323.474502,194.622634 L318.445057,187.074484 L318.445057,185.956936 L320.959779,186.235382 L323.474502,182.322084 L321.241699,179.526333 L322.07994,177.569683 L319.843378,176.452136 L317.328656,176.452136 L315.930335,174.773933 L315.370254,172.535074 L309.224408,172.813521 L306.153364,171.974419 L303.082321,172.813521 L303.920561,179.244124 L307.273525,181.761428 L306.713444,184.835625 L307.551685,185.396281 L306.435284,186.235382 L305.036963,185.396281 L303.920561,186.235382 L305.036963,194.622634 L303.082321,197.418385 L302.80416,203.292096 L300.289437,203.292096 L300.849518,204.970299 L298.612956,206.370056 L298.891116,204.970299 L293.023431,196.583046 L293.023431,190.991545 L294.421752,192.948194 L296.376394,192.948194 L295.259992,189.313342 L290.512467,183.161185 L288.835985,181.482982 L285.764942,184.000287 L286.603183,189.034896 L285.764942,189.873997 L286.325022,194.069505 L284.37038,194.347951 L282.693898,186.517591 L280.179176,182.322084 L282.411978,179.247887 L281.295577,178.408785 L277.942614,177.84813 L276.266132,179.526333 L273.75141,176.730582 L275.706052,172.817283 L274.02957,171.13908 L276.262373,172.538837 L277.660694,171.13908 L275.145972,168.903985 L275.424132,167.504228 L272.353089,164.430031 L271.236687,157.438773 L266.489162,151.565062 L265.37276,152.68261 L264.256359,150.165305 L262.579877,150.443752 L262.301717,152.400401 L259.786994,154.078604 L261.741636,155.478361 L260.625235,157.713456 L259.226914,156.313699 L257.272272,158.270349 L258.110512,159.387896 L258.110512,162.462093 L256.994111,164.140297 L259.508833,166.096946 L258.392432,167.214494 L256.71595,168.892697 L256.994111,172.527549 L263.139957,178.958152 L264.538278,178.397497 L266.771081,181.193247 L268.447563,180.0757 L269.285804,182.310795 L267.053001,181.471694 L266.21476,183.988998 L264.538278,187.902297 L266.492921,189.5805 L267.609322,188.462952 L268.169402,186.227856 L269.007643,186.227856 L269.285804,192.101567 L268.169402,191.823121 L265.098359,197.414622 L261.745395,198.253724 L260.628994,199.653481 L261.745395,203.566779 L261.745395,208.319179 L260.907154,208.319179 L259.230673,206.36253 L257.554191,207.480078 L258.114271,205.244982 L257.276031,203.845225 L258.114271,201.327921 L257.836111,196.293312 L258.952512,195.175764 L257.276031,195.175764 L252.806666,193.219115 L250.291943,190.984019 L250.291943,192.940669 L246.93898,193.501324 L248.055382,195.736419 L248.333542,197.971515 L251.126425,198.810616 L251.964666,198.810616 L253.641148,201.327921 L251.964666,202.167022 L246.935221,197.971515 L246.09698,200.488819 L243.025937,199.928164 L240.793134,198.528407 L238.000251,198.528407 L236.60193,200.20661 L230.456083,199.928164 L224.032076,193.776007 L222.915675,194.893555 L220.400952,193.493798 L220.122792,192.654697 L217.051748,189.858946 L217.100614,189.625653 L217.608069,187.345404 L215.653427,182.87145 L214.255106,182.593004 L210.063902,184.549653 L204.196216,184.549653 L201.963413,188.184506 L204.478136,189.862709 L206.154617,188.462952 L208.109259,189.302053 L212.856785,188.462952 L213.973186,186.784749 L215.371507,187.345404 L215.649668,189.302053 L205.312617,192.936906 L203.357975,194.615109 L204.474377,198.249961 L205.312617,203.563016 L205.872698,206.358767 L205.034457,206.358767 L203.636136,204.680564 L202.519734,206.91566 L200.843253,205.515903 L201.959654,201.320395 L199.166771,195.728894 L194.697406,190.137392 L191.344443,191.815595 L190.228042,190.976494 L183.243954,190.415838 L171.790502,185.663438 L171.230422,183.706789 L174.301466,181.471694 L175.139707,182.310795 L178.210751,183.149897 L179.327152,180.632592 L177.928831,175.319537 L174.019546,171.406238 L170.110262,171.406238 L163.686255,167.210731 L163.686255,165.254081 L157.585516,158.639102 L157.262248,157.984377 L157.168275,158.183805 L157.141962,158.157465 L157.141962,158.247772 L157.017918,158.511167 L156.923944,158.213907 L157.017918,157.984377 L156.743516,157.683354 L151.116401,151.553774 L148.601679,150.993119 L147.485278,152.392875 L145.252475,154.071078 L143.019672,153.792632 L141.90327,152.675084 L143.579752,149.318678 L143.301591,147.07982 L146.094474,143.723414 L145.256234,142.884312 L141.346949,146.240719 L139.392307,147.640475 L137.437664,150.15778 L135.761183,149.040232 L135.483022,144.287832 L136.043102,136.179026 L135.204862,133.104829 L133.250219,133.665484 L133.810299,137.02189 L129.901015,137.300337 L130.461095,139.256986 L127.946373,140.096087 L128.224533,138.417884 L121.522366,137.018127 L119.007643,138.417884 L117.609322,138.417884 L117.609322,137.300337 L113.978198,137.02189 L108.392432,138.421647 L106.71595,140.378296 L105.039469,138.700093 L105.599549,137.02189 L115.65468,135.622133 L116.771081,136.182789 L127.664453,135.343687 L125.987971,133.387038 L124.033329,133.108592 L122.356848,131.708835 L118.165643,133.108592 L111.181556,131.151942 L109.505075,133.669247 L106.434031,132.26949 L104.201228,133.669247 L99.4537025,134.229902 L98.0553815,133.112355 L96.1007393,134.512111 L95.8225786,132.555462 L94.9843378,130.877259 L94.146097,130.316604 L93.8792131,130.820817 L93.8679363,130.038158 L91.0750533,127.242407 L90.2368124,125.007311 L90.2368124,121.650905 L89.3985716,121.09025 L89.6767322,117.733844 L88.3986969,115.916418 L84.609698,109.346592 L82.173913,112.695472 L9.21689011,196.011103 L11.1715324,198.246198 L12.2879338,197.967752 L13.4043353,200.763503 L15.9190578,200.763503 L18.5841373,202.98731 L18.0127804,203.788784 L16.1972184,204.119909 L16.1972184,206.339953 L16.1972184,206.603348 L15.9190578,206.358767 L17.0354592,218.941527 L15.3589776,222.576379 L19.8283423,222.854826 L20.9447438,223.415481 L22.6212254,223.693927 L24.0195464,221.458832 L25.9741887,220.61973 L31.0036336,222.019487 L31.2817943,226.493441 L30.1653928,226.493441 L30.725473,229.010745 L31.8418745,232.084942 L30.725473,233.484699 L32.123794,242.432607 L31.5637138,243.271708 L30.725473,258.646456 L28.7708307,260.046213 L29.8872322,261.44597 L28.2107505,263.124173 L28.7708307,265.080822 L28.2107505,267.037471 L29.6090715,267.876573 L32.9620348,274.028729 L33.522115,276.82448 L35.4767573,278.224237 L34.9166771,280.741541 L32.6838742,281.859089 L30.4473124,287.172145 L28.7708307,288.571901 L28.7708307,290.250104 L20.6703421,295.841606 L22.0686631,299.198012 L21.2304223,300.597769 L22.0686631,309.26723 L22.9069039,309.545676 L24.5833855,307.028372 L29.8909911,307.867473 L24.5833855,312.062981 L25.1434657,316.258488 L24.8653051,319.893341 L25.7035459,321.010888 L24.0270643,322.967538 L22.6287433,323.806639 L24.0270643,327.719938 L30.4510713,327.159282 L30.4510713,329.955033 L22.072422,331.911683 L20.9560205,335.824981 L22.9106628,336.385636 L18.4412981,340.581144 L20.9560205,346.454854 L22.6325022,345.337307 L27.1018669,350.089707 L24.5871445,352.885458 L29.3346698,355.959655 L30.4510713,355.959655 L33.8040346,360.155162 L33.8040346,362.390258 L32.4057136,362.950913 L33.8040346,367.703313 L36.5969177,368.263968 L36.8750783,370.499064 L35.7586769,370.77751 L36.318757,374.133916 L38.2733993,375.251464 L38.55156,378.325661 L37.4351585,380.28231 L40.7881218,381.399858 L42.0962285,380.914458 L42.0586393,381.606811 L41.9759429,381.817527 L54.4781356,387.830461 L75.1484776,396.217713 L91.6276156,402.36987 L109.226914,408.243581 L120.958527,411.599987 L141.068788,416.913042 L141.128931,416.649647 L153.356722,419.430346 L169.279539,422.504543 L184.364115,425.021848 L196.373888,426.700051 L211.176544,428.378254 L211.315625,428.393305 L211.454705,428.6567 L211.544919,428.412119 L231.286806,430.056457 L255.028192,430.895559 L261.452199,430.895559 L261.452199,426.192075 L261.73036,426.248517 L261.745395,426.248517 L261.73036,426.38774 L261.73036,426.421605 L261.79802,426.410316 L264.737502,427.30586 L265.643403,433.412863 L267.319885,434.530411 L271.511089,434.808857 L272.90941,435.926405 L274.585891,436.204851 L277.378775,434.805094 L281.569979,435.36575 L285.201103,439.000602 L284.922942,439.839703 L287.715825,438.1615 L291.62511,441.235697 L294.417993,441.514144 L297.770956,438.718393 L298.609197,438.718393 L299.725598,440.396596 L305.033204,440.396596 L306.149605,441.235697 L308.472622,441.055084 L309.483774,441.167967 L309.449944,440.976065 L309.449944,440.972302 L309.780729,440.953488 L310.61897,439.275285 L310.897131,437.318636 L312.851773,435.361987 L313.968174,436.761744 L315.084576,435.922642 L316.482897,431.170242 L317.599298,431.448688 L316.482897,435.083541 L319.27578,430.888033 L318.437539,429.20983 L318.997619,428.370728 L323.466984,430.327378 L331.289312,429.766722 L334.642275,431.444925 L334.920436,433.123128 L339.949881,438.71463 L344.141085,438.71463 L347.772209,437.875529 L347.772209,441.231935 L351.681494,445.427442 L350.565092,448.783848 L353.636136,449.901396 L353.357975,452.697147 L352.797895,454.37535 L356.429019,454.096903 L361.458464,456.614208 L363.973186,455.775107 L370.397193,455.775107 L379.057762,455.214451 L380.174164,456.331999 L384.083448,456.331999 L386.316251,454.37535 L392.183937,460.527507 L394.698659,461.927263 L394.97682,463.044811 L399.168024,467.797211 L397.769703,471.992719 L394.97682,472.271165 L391.905776,470.314516 L389.391054,470.314516 L387.714572,467.797211 L384.643528,465.00146 L381.572485,465.840562 L385.763689,470.592962 L386.323769,474.227814 L383.809046,477.302011 L385.485528,490.163217 L381.016163,494.358725 L380.738003,498.832679 L381.016163,503.028186 L375.986718,505.545491 L377.385039,508.619688 L382.414484,508.619688 L382.692645,506.663039 L386.60193,503.588841 L387.718331,503.310395 L389.672973,499.397097 L391.627616,496.879792 L400.844506,496.319137 L402.799148,495.201589 L400.566345,494.640934 L400.566345,493.523386 L403.081068,492.684285 L410.343315,489.610088 L412.576118,489.610088 L412.655056,489.369269 L412.858038,489.888534 L413.083573,488.097447 L413.139957,487.928122 L413.106127,487.894257 L413.139957,487.649676 L412.301717,487.08902 L410.625235,484.014823 L410.850771,484.601818 L408.670593,485.693026 L404.761308,486.532128 L403.084826,485.41458 L405.87771,480.940626 L408.670593,477.58422 L418.447563,472.549611 L420.962285,471.988956 L421.240446,472.549611 L425.149731,471.71051 L427.104373,470.310753 L424.58965,469.193205 L425.149731,468.354104 L426.548052,468.354104 L428.502694,466.397454 L429.67172,465.452995 L430.897131,465.328823 L431.280541,465.159497 L431.209122,465.148209 L431.280541,465.155735 L433.532139,464.158596 L435.20862,461.084399 L435.486781,459.406196 L436.885102,457.727993 L439.956146,452.975593 L442.256609,452.031133 L444.39168,451.59465 L444.425511,451.575836 L444.354091,451.289864 L444.425511,451.541971 L444.722466,451.082911 L469.565217,442.067273 L469.287057,438.153975 L471.241699,438.153975 L472.3581,436.475772 L473.474502,437.593319 L473.752663,435.076015 L475.429144,434.797569 L473.752663,433.397812 L475.707305,429.76296 L475.147225,428.645412 L475.707305,427.80631 L475.429144,425.849661 L473.752663,423.332357 L474.590903,420.815052 L473.752663,417.458646 L475.466733,408.443008 L476.556822,405.714988 L477.661947,405.714988 L477.940108,407.393191 L478.530259,406.381001 L478.710688,406.712126 L480.732991,404.875886 L480.067661,405.624681 L482.916928,403.637929 L478.744518,407.430819 L480.172911,407.671637 L484.082195,404.875886 L486.318757,404.59744 L489.67172,406.832535 L490.509961,407.950083 L495.257487,418.297748 L496.933968,421.371945 L500.286931,421.650391 L501.125172,424.167695 L502.801654,425.845898 L505.316376,426.124345 L506.714697,424.724588 L508.113018,424.724588 L512.304223,422.48573 L512.864303,420.250634 L514.818945,419.972188 L516.495427,417.454883 L518.731988,413.820031 L519.84839,412.702483 L520.964791,411.302726 L521.803032,407.94632 L523.340434,407.069591 L523.810299,407.035726 L523.761433,407.107219 L524.01704,407.016912 L524.426764,406.990572 L524.599674,407.107219 L522.363112,414.098477 L523.201353,413.820031 L527.110638,411.02428 L531.019922,408.789185 L532.974565,409.067631 L532.974565,409.628286 L531.298083,410.467388 L529.06528,412.984692 L528.227039,414.662895 L527.388798,414.662895 L526.828718,412.706246 L526.268638,412.706246 L522.359353,418.019301 L521.799273,419.975951 L516.491668,428.923858 L518.44631,429.484513 L517.608069,432.840919 L521.517354,436.754218 L522.915675,435.915116 L525.148478,437.032664 L525.426638,438.710867 L528.497682,436.754218 L528.497682,435.076015 L530.174164,433.397812 L533.527127,423.610803 L532.967047,422.771701 L531.850645,421.093498 L533.527127,419.136849 L535.481769,419.975951 L537.714572,418.019301 L537.154492,416.341098 L539.669214,414.384449 L542.183937,411.588698 L548.051623,402.919237 L550.566345,400.401932 L552.799148,398.723729 L552.799148,398.163074 L548.889863,398.723729 L548.611703,397.884628 L546.09698,396.206425 L544.142338,397.884628 L543.025937,396.76708 L541.909535,396.76708 L538.556572,401.241034 L535.203609,400.962588 L533.527127,401.801689 L533.248966,403.201446 L530.734244,402.640791 L529.057762,402.919237 L527.10312,402.358582 L526.99787,402.637028 L526.512968,403.303041 L526.385165,403.272939 L526.546799,403.19392 L526.824959,401.237271 L520.679113,401.237271 L519.002631,401.797926 L515.371507,398.163074 L513.973186,398.44152 L512.574865,395.367323 L510.620223,395.088877 L510.060143,395.927979 L508.943741,395.649532 L510.060143,393.414437 L510.060143,392.01468 L509.500063,388.101381 L508.661822,386.144732 L505.590778,387.822935 L504.192457,390.618686 L502.515975,390.897132 L501.117654,388.940483 L495.531888,389.218929 L495.498058,389.237743 L495.231174,389.606496 L495.084576,389.501138 L494.971808,389.779585 L494.547049,388.710953 L495.531888,388.379828 L498.884852,385.584077 L500.001253,386.144732 L503.072297,386.144732 L505.86518,381.670778 L507.819822,378.314372 L507.541661,373.840419 L505.3051,371.323114 L498.881093,370.762459 L494.133567,371.880007 L483.800276,382.227671 L477.489036,391.036355 L474.583386,395.09264 L472.350583,399.84504 L469.279539,413.266901 L467.881218,416.062652 L464.528255,419.136849 L462.295452,423.050148 L460.61897,423.610803 L455.871445,428.084757 L451.123919,436.472009 L450.007518,442.624166 L447.774715,445.419917 L445.996742,446.687976 L445.985465,446.631534 L448.612956,443.741714 L449.451197,439.26776 L449.729357,436.193563 L452.52224,431.441163 L455.533141,427.802548 L459.224408,423.332357 L464.810174,417.1802 L466.486656,414.106003 L466.208495,410.47115 L467.884977,408.792947 L470.11778,395.09264 L473.188823,386.705387 L475.981707,380.831677 L479.890991,378.875028 L479.890991,371.605323 L481.567473,366.570714 L486.596918,362.375206 L503.636136,353.705745 L504.474377,353.705745 L515.089588,348.39269 L517.04423,348.39269 L521.513595,344.757838 L527.937602,340.844539 L528.215762,340.005437 L528.215762,336.93124 L529.332164,333.017942 L530.448565,329.38309 L529.610325,328.265542 L529.610325,327.147994 L530.726726,326.030446 L530.448565,323.791588 L534.35785,320.995837 L534.079689,319.596081 L535.196091,316.80033 L538.549054,315.682782 L537.707054,315.419387 L537.710813,315.404336 L538.432527,315.520982 L538.545295,315.359182 L538.549054,315.562373 L540.364616,314.008342 L542.041098,307.577739 L542.601178,302.54313 L541.202857,300.308034 L540.086455,298.072939 L538.203233,298.611017 L538.086706,298.573389 L533.662448,292.202991 L529.193084,290.524788 L525.56196,290.246342 L523.607317,292.202991 L523.607317,295.277188 L522.208996,294.438086 L521.648916,291.642336 L518.295953,288.846592 L513.266508,292.759883 L514.104749,293.877431 L510.751785,298.351385 L510.751785,301.986237 L509.635384,302.546892 L506.14334,309.538151 L505.985465,309.387639 L505.722341,302.546892 L509.913545,295.837843 L509.913545,293.602748 L514.94299,286.893698 L514.664829,284.376394 L511.033705,284.65484 L509.635384,283.255083 L508.518983,284.094185 L508.518983,286.32928 L506.28618,287.168382 L501.256735,285.490179 L499.580253,287.168382 L497.34745,286.050834 L495.392808,288.568139 L492.321764,289.128794 L492.881844,286.611489 L490.649041,283.815739 L486.457837,285.215495 L483.943115,284.097948 L482.544794,285.215495 L482.544794,283.537292 L480.590152,282.698191 L478.91367,283.815739 L476.120787,281.580643 L475.004385,277.945791 L475.564466,273.750283 L474.726225,272.911182 L471.933342,273.189628 L471.373261,272.07208 L467.742138,271.232979 L469.140459,269.276329 L467.636888,267.071336 C467.636888,267.071336 467.625611,267.071336 467.621852,267.071336 C467.354968,267.522871 464.780103,267.598126 464.392933,267.598126 L464.114773,265.641477 L461.043729,264.523929 L460.483649,263.124173 L456.533016,264.708306 L456.397695,264.591659 L457.408846,262.56728 L456.292445,259.771529 L454.894124,260.049976 L451.263,257.254225 L449.586518,256.975779 L448.470117,256.136677 L446.440296,255.248659 L440.335798,249.32227 L440.971056,250.161371 L440.786869,249.988283 L440.016289,250.278018 L437.433906,248.866972 L437.712066,257.254225 L438.550307,259.48932 L439.666708,269.276329 L437.430147,269.276329 L437.990227,273.471837 L433.520862,279.623994 L430.449818,277.106689 L428.773337,276.828243 L424.864052,274.593147 L420.116527,278.228 L418.718206,280.463095 L417.879965,280.184649 L416.481644,277.667344 L418.158126,278.228 L418.718206,277.388898 L418.158126,276.27135 L419.834607,274.593147 L417.601804,271.797397 L416.485403,272.636498 L415.647162,271.236741 L415.647162,270.119194 L413.414359,265.366794 L412.854279,265.366794 L412.576118,264.249246 L413.136198,263.9708 L410.621476,260.614394 L409.223155,257.540197 L409.783235,256.701095 L410.621476,255.022892 L408.666834,253.344689 L407.828593,254.183791 L409.226914,255.861994 L406.712191,255.861994 L406.152111,254.462237 L403.637389,255.022892 L403.637389,256.422649 L396.375141,256.144203 L394.97682,253.348452 L395.254981,251.948695 L394.6949,251.109594 L393.85666,251.670249 L388.549054,249.435153 L386.872572,247.478504 L380.170405,245.521855 L374.862799,251.674012 L373.186318,250.556464 L371.509836,251.395565 L360.056384,251.117119 L357.263501,254.751971 L358.101742,258.108377 L362.011026,263.142986 L362.849267,268.177596 L361.732866,271.534002 L362.571106,273.212205 L363.687508,272.373103 L366.480391,278.52526 L369.551435,282.720767 L368.153114,284.39897 L367.874953,289.712026 L366.758552,293.625324 L364.525749,295.025081 L366.20223,298.099278 L368.435033,300.334374 L371.506077,301.173475 L377.373763,304.808327 L383.241448,310.960484 L385.756171,317.391087 L386.594412,326.060549 L385.196091,331.095158 L379.328405,341.442822 L376.535522,343.399471 L374.020799,346.473668 L369.551435,347.31277 L370.111515,348.712527 L372.066157,349.273182 L374.020799,352.068933 L375.975442,353.46869 L377.373763,354.868446 L377.095602,356.546649 L378.772084,361.581258 L381.286806,364.937664 L382.685127,367.733415 L384.083448,372.207369 L385.481769,372.485815 L386.598171,375.560012 L384.921689,378.916418 L384.643528,381.433723 L386.876331,383.668818 L386.876331,385.625468 L385.47801,386.464569 L384.639769,384.225711 L382.125047,382.825954 L380.726726,384.504157 L381.106378,386.253853 L381.283047,388.948009"/><polygon points="433.239 237.673 431.562 234.877 429.89 234.32 427.653 236.555 431.562 238.794"/><polygon points="418.714 257.247 417.598 259.203 419.553 260.603 421.507 258.086 421.507 254.729 419.553 254.451"/><polygon points="398.044 238.233 398.044 236.834 392.458 235.438 396.089 238.794"/><polygon points="380.167 377.483 378.49 379.439 378.772 380.839 382.403 378.04"/><polygon points="380.449 493.802 380.167 499.676 380.727 495.758"/><polygon points="380.167 461.088 379.888 457.732 378.49 458.292 377.374 457.171 375.979 458.01 372.904 458.292 371.788 459.41 367.04 459.41 367.319 460.806 372.066 460.806 378.772 462.484"/><polygon points="374.303 343.926 373.464 342.53 369.551 345.326 370.95 346.165"/><polygon points="370.112 322.956 369.273 323.517 369.273 324.913 368.157 326.591 367.597 325.195 367.04 328.548 365.642 332.183 367.879 330.226 368.995 331.626 372.348 327.991 370.672 325.474"/><polygon points="358.658 369.092 357.542 371.052 358.94 372.17 364.526 372.448 368.717 373.566 370.112 373.009 366.202 367.696 361.733 367.696"/><polygon points="365.642 327.709 366.202 326.034 363.966 327.991"/><polygon points="362.289 239.633 362.289 238.233 356.982 237.955 360.613 240.19"/><polygon points="358.658 184.828 360.895 183.707 360.056 182.029 356.982 182.029 355.309 180.354 354.189 183.428 355.309 185.107"/><polygon points="351.678 242.147 352.234 243.546 353.35 244.103 355.309 245.781 357.264 243.825 357.542 241.59 353.072 240.468"/><polygon points="323.463 133.376 323.463 141.485 322.625 141.485 322.069 136.732 319.272 137.85 319.554 135.893 317.877 137.011 317.039 142.884 315.641 142.884 316.479 137.293 315.923 133.658 314.524 129.462 313.13 128.623 311.732 128.345 311.453 126.106 309.217 122.753 302.515 124.428 300.838 127.224 299.162 129.462 298.324 133.658 297.485 136.172 297.767 141.206 300.278 142.324 297.767 147.08 300.278 150.154 303.353 150.715 303.353 156.306 301.116 155.746 302.233 154.35 296.091 147.358 293.854 136.172 294.414 131.419 297.767 125.828 295.531 124.149 290.501 124.71 284.359 132.258 283.521 136.454 282.123 144.28 283.521 156.306 285.476 157.145 291.061 157.424 293.576 159.663 290.783 160.498 287.708 158.541 285.754 159.941 286.032 163.576 286.87 163.297 290.783 166.932 290.783 168.328 295.531 168.61 296.091 165.811 302.233 172.524 305.868 168.61 307.262 170.006 313.686 168.889 316.761 170.846 319.272 168.889 320.949 170.567 322.625 169.167 320.67 166.65 325.418 166.093 326.816 167.771 330.725 166.093 327.933 161.619 325.978 161.619 325.978 159.941 332.962 162.176 335.477 166.372 338.826 164.972 339.664 166.932 338.548 168.05 341.341 168.328 346.37 171.406 345.532 173.92 343.295 175.041 343.573 178.676 347.487 175.88 348.047 173.081 353.632 175.88 356.147 175.88 356.147 178.115 361.733 180.911 367.879 189.302 367.04 190.137 366.759 197.968 362.289 204.398 363.688 206.077 368.435 208.315 368.717 211.39 366.48 211.111 365.92 213.907 363.409 213.907 361.733 216.424 357.264 217.263 356.703 216.424 351.956 216.703 351.118 218.102 351.396 219.498 352.794 221.177 349.163 223.412 350.279 226.768 351.678 228.725 355.027 230.964 357.542 231.521 358.658 229.846 362.849 226.768 361.733 224.811 363.127 223.694 367.879 225.09 368.157 223.972 370.39 220.338 371.51 224.533 372.348 222.576 382.96 228.725 385.474 228.168 387.429 228.446 387.711 232.92 390.782 234.877 391.898 234.038 398.882 234.877 399.999 233.759 401.675 233.759 402.792 235.716 407.543 237.394 413.129 235.994 420.669 235.994 422.627 236.555 424.022 233.481 421.507 231.521 417.32 229.007 409.776 226.49 406.983 225.929 400.281 221.177 402.513 218.938 406.983 222.576 409.498 222.016 414.527 224.533 419.553 223.133 422.627 223.972 424.3 225.09 424.582 223.694 423.744 222.016 423.462 219.777 421.507 218.102 419.275 215.024 422.627 216.703 422.627 214.185 418.714 211.668 418.714 209.994 413.129 208.315 414.805 207.476 413.407 204.959 411.452 206.355 408.381 202.442 407.261 203.559 403.63 202.72 397.488 197.411 394.973 198.528 394.413 197.411 391.898 195.172 392.458 193.215 394.135 195.172 396.65 193.494 395.811 192.376 393.575 191.816 391.898 189.581 394.413 189.859 392.736 187.342 395.529 185.946 398.604 188.741 403.352 190.42 405.588 187.902 404.468 191.259 407.543 192.376 409.498 194.894 412.29 197.411 415.083 195.172 417.876 196.572 417.876 193.494 415.361 187.342 417.038 187.624 418.993 184.267 418.158 179.793 415.643 179.793 415.643 177.276 417.876 176.998 418.158 176.159 416.76 174.202 418.436 172.524 412.012 170.846 408.381 174.48 407.821 169.446 404.468 173.081 403.074 172.245 401.119 168.328 397.488 167.489 395.811 169.167 396.65 166.093 395.811 164.972 391.62 169.446 387.151 168.889 384.636 164.972 382.96 165.533 374.581 166.093 374.581 164.693 377.374 164.415 378.772 163.297 377.374 159.38 375.697 158.823 379.61 157.984 381.283 156.028 380.727 154.628 375.141 155.467 372.626 155.746 372.904 154.067 376.536 150.993 372.066 146.798 370.672 147.08 370.95 149.876 369.273 150.715 367.879 149.593 365.082 152.111 364.248 151.272 369.551 145.959 368.995 144.841 363.409 143.723 361.733 146.241 360.613 146.798 361.733 144.28 358.38 147.08 358.102 142.606 356.425 142.045 355.587 145.402 354.749 144.002 352.512 145.68 353.632 147.08 355.587 145.68 354.471 147.915 352.512 147.358 351.956 144.28 354.471 142.045 354.189 140.645 350.001 137.571 348.325 139.249 347.487 143.445 342.739 137.85 339.386 142.045 338.826 141.485 341.341 137.85 339.942 134.497 337.149 135.054 336.871 133.097 333.518 131.419 332.124 132.537 328.771 130.58"/><polygon points="343.855 182.868 344.134 192.376 346.37 194.333 349.719 193.494 353.072 193.772 354.471 189.859 353.632 186.785 351.396 183.989 352.234 181.193 347.487 180.911"/><polygon points="352.234 179.515 348.603 175.88 350.001 179.233 351.956 180.354"/><polygon points="351.678 265.077 351.396 259.203 349.719 254.729 346.088 256.968 345.81 260.882 349.719 266.473"/><polygon points="339.942 169.446 337.71 171.406 339.386 173.641 341.341 170.846"/><polygon points="340.781 241.868 341.063 239.912 337.988 237.116 337.149 239.072 334.357 238.794 332.962 240.468 332.124 240.19 333.8 237.673 330.447 232.36 326.816 230.964 321.787 227.607 319.554 227.607 316.761 224.811 315.641 225.09 315.363 227.886 314.246 228.168 310.333 220.338 307.822 221.737 308.1 227.329 309.217 228.725 308.379 242.429 304.469 248.577 305.308 250.255 312.292 247.181 313.686 247.742 313.686 250.255 315.085 253.89 318.716 251.655 320.949 246.903 321.787 246.342 324.023 244.664 322.903 242.429 324.862 239.912 327.094 241.308 329.331 241.868 331.004 243.825 333.518 244.385 336.871 246.064"/><polygon points="335.195 251.655 331.564 252.494 329.331 254.451 327.373 253.051 326.816 256.129 324.301 260.042 326.538 262.56 327.654 262.838 329.887 262.838 332.68 261.721 332.124 260.603 335.755 255.29"/><polygon points="332.124 168.61 331.004 171.406 334.917 168.05"/><polygon points="333.8 176.998 333.8 172.524 332.402 172.245 331.564 179.233"/><polygon points="316.761 122.193 312.292 121.632 312.01 123.032 313.408 127.224 315.182 128.612 315.923 129.184 317.317 133.936 320.11 133.376 320.67 130.862 323.185 129.462 328.666 129.071 331.004 128.902 330.169 126.945 323.185 120.793 319.554 121.075"/><polygon points="324.58 169.167 323.185 170.846 325.7 172.245 328.771 169.728 328.771 168.328 325.978 169.167"/><polygon points="321.787 222.016 322.069 220.898 319.832 219.22 315.641 217.542 318.438 222.016"/><polygon points="272.067 27.683 272.906 27.961 271.507 30.2 274.022 32.435 272.627 33.835 273.184 35.509 279.33 33.835 282.401 31.039 280.446 34.953 275.138 36.07 275.138 37.188 279.608 39.426 280.728 36.631 281.284 40.266 286.592 39.426 286.87 38.027 288.268 37.748 288.828 39.426 294.132 35.509 295.252 33.274 298.045 33.553 294.692 38.866 289.385 42.222 289.667 43.618 293.298 46.136 292.738 47.535 294.971 50.053 293.298 49.77 291.621 47.257 290.501 47.257 287.43 43.9 281.284 43.9 281.284 45.579 282.123 47.257 282.683 49.77 286.032 52.009 287.19 54.195 288.547 56.762 288.828 59.84 293.298 60.396 294.132 59.557 295.531 60.396 292.738 63.192 291.061 61.514 285.754 61.796 283.521 63.753 283.239 65.71 282.123 67.388 282.134 67.583 282.401 72.14 283.799 72.14 285.197 70.744 286.314 71.862 287.152 71.862 288.547 71.023 287.99 73.54 288.828 76.057 292.178 78.292 293.576 76.893 294.132 74.936 294.971 76.893 294.692 78.292 292.46 79.41 288.828 79.692 287.708 78.014 285.754 74.936 281.844 74.936 281.844 76.893 282.401 78.014 282.961 81.088 284.637 81.649 284.915 82.488 283.239 84.444 282.123 84.166 279.051 88.358 279.608 92.275 279.33 93.392 282.683 93.671 283.799 94.231 287.152 91.714 288.828 92.832 293.854 94.51 293.298 92.553 293.854 91.154 297.767 90.314 298.324 91.993 300.278 90.597 300 88.918 303.631 88.918 303.909 92.832 304.748 93.392 311.172 86.962 312.01 83.605 310.333 80.531 309.217 81.367 309.217 82.766 308.661 83.327 306.702 81.649 307.54 80.249 306.702 78.853 305.029 79.971 299.44 80.249 298.884 75.497 300.838 77.732 305.029 78.292 308.939 74.936 306.984 70.184 308.939 69.066 309.777 69.623 313.13 66.549 310.615 65.149 313.13 64.31 312.57 62.075 310.333 60.396 312.848 60.396 312.292 57.04 310.055 55.923 309.217 54.805 306.424 55.366 307.54 53.127 312.292 52.566 310.615 50.609 303.909 52.566 307.262 50.053 308.939 49.77 312.57 46.136 311.732 43.9 313.686 45.018 315.923 41.662 316.201 38.027 312.57 39.705 315.363 36.07 315.085 34.392 316.479 33.835 318.716 25.166 319.272 21.531 320.67 17.335 319.272 15.939 317.317 17.057 313.968 23.487 312.292 23.766 315.085 17.896 312.292 19.292 311.453 18.735 315.923 16.778 319.554 10.626 318.994 4.196 317.877 2.517 315.363 3.074 312.848 0 310.333 .278 308.379 4.752 306.702 4.752 308.1 2.517 307.54 .561 305.308 1.678 301.116 1.4 300.56 2.796 298.602 2.796 297.207 5.035 291.9 4.474 291.621 6.709 293.016 8.109 293.016 8.669 287.99 8.109 285.754 10.905 286.87 12.861 284.915 12.022 284.637 16.218 285.476 17.617 283.521 18.456 279.608 15.1 279.608 17.896 277.653 19.013 281.284 21.809 278.491 22.091 277.375 21.252 275.699 21.252 274.3 24.326 273.462 23.487 268.714 27.122 270.391 29.079"/><polygon points="312.292 218.659 313.686 223.412 315.641 222.855"/><polygon points="283.239 114.084 284.915 114.923 284.077 117.158 292.738 117.158 295.252 116.319 296.929 114.923 300.278 114.923 302.233 112.406 306.702 114.641 308.661 112.406 310.333 112.406 311.172 108.492 312.57 107.932 312.57 105.975 310.615 105.975 310.615 104.575 311.732 101.78 310.055 100.662 307.822 100.662 308.1 98.705 305.308 98.423 303.909 96.749 297.207 98.705 295.252 101.78 292.178 102.34 290.783 103.736 291.061 106.254 288.268 103.458 284.077 104.297 284.077 102.619 282.401 102.619 282.123 105.136 281.284 104.858 281.562 102.34 279.608 99.823 276.259 99.823 275.138 98.984 277.375 96.749 279.608 95.91 275.699 94.231 275.699 92.832 273.184 90.875 271.229 90.597 269.553 92.832 268.714 91.993 266.76 88.64 265.083 88.64 260.058 86.401 257.821 88.079 257.543 90.314 261.452 95.349 262.012 94.51 261.452 97.027 267.038 96.188 268.996 95.627 269.553 99.262 271.789 101.501 272.346 105.136 270.669 109.332 272.906 110.728 272.627 114.641 273.744 114.641 275.699 116.88 277.653 116.601 280.728 117.719"/><polygon points="300.56 198.246 301.676 197.411 301.116 192.655 298.602 194.054"/><polygon points="298.045 171.963 298.324 171.124 296.647 169.728 294.692 171.685"/><polygon points="271.229 140.645 273.184 140.928 276.537 136.172 276.537 133.658 279.33 128.623 277.653 123.871 272.627 125.267 268.436 122.193 264.245 123.31 262.569 125.828 263.689 127.784 260.614 127.506 261.174 129.462 260.614 139.806 262.851 144.563 263.407 148.754 266.2 149.315 268.996 143.163 267.876 140.367 268.996 139.249"/><polygon points="261.73 56.201 263.129 58.718 268.714 57.322 264.805 61.236 267.876 67.109 270.113 67.388 268.714 69.344 272.627 72.422 274.582 72.14 275.138 71.023 277.653 69.623 278.213 71.301 279.33 71.583 279.608 68.227 280.728 67.666 280.446 65.988 282.683 60.957 286.314 59.001 286.032 54.805 281.844 52.566 280.446 48.374 279.051 46.975 279.051 43.061 276.537 42.501 277.653 43.9 277.653 46.696 276.815 46.696 274.86 41.944 273.184 41.944 272.627 39.705 267.876 31.875 264.523 31.596 263.967 32.996 266.482 34.392 264.805 36.631 263.689 35.509 262.29 35.509 262.012 38.309 263.967 40.266 264.245 41.383 261.452 41.662 260.336 46.418 261.452 46.136 263.689 49.77 260.336 47.257 260.336 52.288 262.012 53.966"/><polygon points="277.375 94.231 278.77 94.231 277.931 90.314 276.259 88.079"/><polygon points="274.3 77.732 273.184 79.41 273.462 81.649 275.699 84.166 277.931 84.166 277.653 81.088"/><polygon points="268.158 116.319 268.158 108.492 263.967 104.018 261.452 105.136 260.336 107.932 257.821 111.845 263.967 116.88"/><polygon points="267.038 81.367 268.158 77.732 263.967 77.175 263.407 77.732 261.174 76.893 259.219 79.971 265.361 80.531"/><polygon points="266.482 102.34 264.245 100.101 262.851 100.662 264.523 102.897"/><polygon points="255.588 66.549 255.028 70.184 257.821 73.258 255.866 72.979 257.261 76.614 260.058 76.336 263.967 73.818 262.29 69.905 262.851 68.505 261.174 67.948 260.336 66.549 255.866 64.31 254.75 64.31"/><polygon points="262.29 180.354 260.058 178.394 258.659 180.072 260.892 182.029"/><polygon points="255.866 178.676 251.119 174.759 248.044 178.115 247.488 182.029 246.65 183.428 244.413 182.868 243.297 185.107 244.973 187.063 256.983 192.655 262.29 188.181 261.452 186.785 259.498 186.503 259.776 184.267 256.145 180.354"/><polygon points="260.892 105.136 259.219 104.018 256.423 105.697 257.543 107.653"/><polygon points="256.423 134.215 255.306 136.454 256.983 137.85 258.659 136.172"/><polygon points="255.306 139.806 255.306 138.41 254.75 136.172 251.675 136.732 251.675 135.054 254.75 131.98 255.306 129.462 256.705 129.184 254.75 125.549 248.604 127.784 247.766 127.506 246.928 124.428 243.018 125.267 243.297 128.623 241.06 129.462 240.782 132.819 243.853 135.054 242.736 139.806 241.342 138.689 238.267 133.936 235.752 137.85 237.989 142.324 238.549 143.723 243.297 148.754 245.251 152.95 245.251 154.906 249.161 157.702 250.837 156.028 251.119 152.95 251.953 152.95 252.792 153.789 257.543 150.715 257.261 149.036 256.983 145.402 258.099 143.163"/><polygon points="239.105 104.018 249.161 103.179 248.882 104.297 245.251 107.653 247.206 112.406 249.721 111.288 251.675 112.127 254.75 109.888 255.588 106.814 256.145 104.858 255.588 102.062 256.145 100.662 256.145 96.188 255.028 93.949 252.792 91.154 251.397 93.949 250.281 93.949 249.721 91.154 245.811 93.949 247.766 95.349 247.766 97.306 249.161 100.941 247.206 99.262 244.691 93.671 243.018 94.231 242.736 98.145 244.691 101.78 242.458 100.101"/><polygon points="255.028 52.566 254.75 47.814 252.235 46.975 251.397 49.492 253.352 52.566"/><polygon points="248.882 124.428 249.442 126.106 254.468 124.149 253.912 123.31 251.675 123.31"/><polygon points="239.944 65.431 237.989 66.549 239.387 69.344 242.18 69.066 246.928 70.744 247.488 71.583 247.766 74.936 250.837 77.453 252.792 76.336 251.675 69.623 252.235 65.149 248.882 63.192 247.488 59.557 245.251 61.236 244.691 58.44 242.18 55.083 238.549 56.762 238.549 59.279 242.458 65.149 242.18 66.549"/><polygon points="245.529 92.832 248.882 90.036 247.488 88.358 244.413 91.436"/><polygon points="243.018 75.497 244.413 77.453 247.488 77.732 247.206 76.614"/><polygon points="237.429 100.941 239.944 101.223 242.18 98.705 239.665 98.423"/><polygon points="241.06 186.785 240.222 184.828 238.267 185.385 239.665 188.181"/><polygon points="240.504 96.467 240.504 95.071 235.474 95.349 236.312 97.588"/><polygon points="239.105 93.949 239.387 92.553 236.873 89.758 234.636 90.875 236.034 92.553 236.034 93.949"/><polygon points="234.358 81.927 236.591 83.327 237.429 82.488 235.474 75.775 233.798 75.218 234.08 78.853"/><polygon points="233.52 109.61 236.312 109.332 235.196 107.093 234.918 104.297 232.96 104.297 232.681 106.254 231.565 108.21"/><polygon points="231.283 187.624 232.96 189.581 234.358 188.181 232.681 186.224"/><polygon points="230.727 128.063 227.652 124.428 224.303 124.428 221.51 126.667 226.257 135.054"/><polygon points="224.859 66.549 226.536 67.388 227.934 66.27 228.49 64.31 226.502 61.078 226.257 60.675 224.859 60.396 221.51 62.075 217.597 62.353 216.759 63.474 219.833 64.87 221.51 65.988 222.348 65.149 222.904 65.431 222.904 65.988 224.859 66.27"/><polygon points="216.48 76.614 222.066 76.614 222.066 71.301 224.021 70.462 224.859 68.784 218.157 68.505 215.364 69.905 215.082 71.862 213.966 73.818"/><polygon points="218.717 189.02 220.672 190.42 221.51 189.581 220.112 187.342"/><polygon points="215.191 108.244 219.273 107.093 220.95 109.332 223.183 109.049 224.581 109.888 227.934 108.771 230.167 106.254 230.449 104.858 232.121 101.223 232.121 98.145 229.888 95.627 227.934 95.627 226.536 96.749 224.303 94.51 223.464 93.949 225.141 92.832 224.303 90.036 224.859 87.24 224.581 85.005 223.183 84.444 221.228 87.519 217.879 89.479 220.112 92.832 220.672 94.51 218.995 94.231 217.879 95.627 221.788 100.662 220.39 100.941 217.04 99.262 216.465 99.063 213.966 98.705 213.966 95.627 212.289 94.51 213.127 93.392 211.733 91.993 211.733 90.314 208.658 88.358 208.658 86.962 207.264 85.005 203.072 84.723 201.956 86.123 201.678 86.123 198.603 89.758 200.839 91.714 198.325 90.875 195.81 92.832 199.163 95.071 194.412 94.51 193.017 95.627 196.648 99.545 197.487 100.941 202.234 102.619 203.35 100.662 204.749 100.941 204.189 102.897 212.011 102.897 212.011 104.858 207.82 103.736 203.911 105.414 201.678 105.697 201.118 108.21 204.749 111.288 206.982 111.288 214.966 108.865"/><polygon points="211.733 70.744 214.526 69.344 212.849 65.71 211.173 66.827 212.011 69.066"/><polygon points="211.451 81.649 207.264 80.531 208.102 82.766 210.895 82.766"/><polygon points="187.71 83.327 187.431 85.562 190.224 86.401 191.901 85.562 191.901 84.166 193.855 84.166 199.163 77.732 199.441 78.292 197.208 81.649 198.881 85.005 200.839 82.766 204.189 81.927 204.471 78.853 205.309 78.853 205.309 77.175 205.027 75.218 206.425 75.775 207.542 74.936 206.147 70.462 204.749 70.462 203.911 72.14 203.072 72.422 201.118 70.462 198.603 70.744 191.901 75.775 188.548 75.775 188.27 78.014 186.311 77.453 182.68 79.131 182.68 82.488 186.033 83.605"/><polygon points="197.208 86.123 192.739 88.358 189.108 89.758 190.781 92.832 197.208 86.962"/><polygon points="156.146 130.023 155.868 131.419 154.469 134.215 155.029 135.893 159.777 135.893 161.732 134.497 162.292 135.615 166.479 136.454 170.949 129.184 174.58 128.063 176.816 125.549 187.149 120.515 190.224 120.793 192.739 118.279 190.224 110.171 187.71 107.932 184.357 107.653 182.124 106.532 179.887 104.018 179.049 99.262 174.58 99.545 172.347 98.423 168.156 97.866 168.156 100.384 166.479 101.78 167.317 105.975 151.398 121.075"/><polygon points="97.766 131.98 98.604 132.819 100.837 132.819 108.099 130.023 106.423 126.945 103.912 128.345 102.513 127.506 100.281 128.345 96.65 128.345 97.206 129.184"/><polygon points="31.564 368.813 34.357 373.009 35.195 370.77 32.124 366.296"/><polygon points="29.049 369.374 28.771 357.63 24.241 353.224 18.994 348.122 17.599 344.765 13.686 341.413 11.732 341.691 10.893 343.926 12.57 346.726 15.923 346.726 15.641 348.122 13.13 348.4 11.453 350.918 15.363 354.274 14.524 354.835 15.641 357.07 17.877 357.63 18.156 361.822 17.039 361.822 16.761 362.943 17.599 364.9 19.554 364.9 20.392 369.374 19.554 370.492 21.509 373.566 24.023 373.009 24.301 374.405 23.185 376.083 27.933 382.514 31.842 384.753 33.518 381.675 34.078 375.244 33.094 374.093"/><polygon points="28.771 328.269 22.347 329.108 22.347 330.508 29.049 329.669"/><polygon points="25.14 308.138 24.301 309.817 27.373 308.417"/><polygon points="19.554 316.526 19.832 318.482 21.787 322.117 24.58 317.365 23.185 312.612"/><polygon points="18.994 301.986 20.11 310.652 20.949 308.695 19.832 301.426"/><polygon points="16.201 298.908 18.156 301.426 19.832 300.308 18.438 298.908"/><polygon points="16.761 320.439 18.994 320.439 19.272 317.643 17.599 317.365"/><polygon points="17.039 310.095 18.438 308.695 17.317 304.782 16.761 303.382 15.085 305.06"/><polygon points="16.479 357.909 14.524 359.865 17.039 361.544"/><polygon points="9.499 292.478 7.262 296.113 4.191 295.273 4.469 294.717 7.54 294.434 8.661 292.76 7.822 290.799 6.424 290.243 6.146 288.286 5.029 287.165 2.233 290.799 1.398 293.038 0 294.434 1.398 295.834 .838 300.586 4.748 300.869 7.262 297.512 12.848 293.317"/><polygon points="6.702 303.382 5.308 301.426 .278 301.708 .56 302.543 .56 306.182 1.955 315.965 3.909 316.247 3.909 314.847 3.071 314.291 3.071 310.095 2.233 307.299 3.631 303.664"/><polygon points="237.151 170.846 234.918 168.889 231.565 164.972 230.167 165.254 227.652 160.498 225.979 156.306 227.934 154.067 226.257 149.876 225.697 134.776 221.228 129.462 219.833 130.302 218.435 127.784 217.319 128.345 215.364 143.445 216.48 146.798 213.966 149.593 213.688 145.68 212.849 144.841 213.688 142.884 212.849 139.806 213.409 137.011 212.849 135.893 209.778 130.023 209.218 130.302 207.542 130.023 207.542 131.419 208.658 132.537 209.218 132.258 209.496 133.376 207.82 135.332 207.839 135.434 207.745 135.475 204.471 136.732 202.234 137.011 201.956 136.172 203.911 135.615 204.189 133.376 200.839 128.623 198.881 127.506 195.81 131.419 192.739 131.141 197.208 127.506 195.532 121.632 188.548 124.149 187.149 123.589 183.8 124.149 178.211 128.345 177.933 131.698 176.816 131.141 174.58 133.376 173.463 133.376 172.069 135.054 172.903 136.172 174.301 137.011 175.14 138.132 174.023 139.249 175.418 140.928 179.887 141.485 185.195 142.045 184.917 143.163 173.741 143.163 171.509 146.241 172.903 149.593 176.256 150.715 179.692 152.923 179.485 153.048 182.68 154.067 188.548 154.067 187.988 155.189 192.457 157.702 195.532 161.619 191.619 161.898 186.033 158.263 179.049 156.585 171.23 156.863 171.23 157.702 171.554 157.8 171.542 157.804 171.828 157.954 171.787 157.984 171.787 161.898 173.741 166.093 176.538 168.889 182.402 171.685 181.842 174.202 183.518 180.072 189.108 182.311 198.603 183.428 205.027 180.633 209.496 180.911 213.409 177.837 213.688 176.437 214.526 176.719 214.526 178.676 219.273 181.75 220.39 181.193 218.435 183.428 220.112 184.546 224.581 184.546 226.257 185.946 230.727 185.663 233.241 183.989 233.52 180.354 232.96 178.954 231.283 178.115 229.05 180.072 227.934 175.88 231.005 177.555 231.565 175.88 233.52 174.48 234.358 173.363 234.636 176.159 237.711 174.48 237.151 176.998 239.105 175.32 239.387 170.567"/></g><path stroke="#EE008C" stroke-width=".694" d="M15.9786951,205.751794 L15.9786951,206.04909 L29.8112252,217.376457 L50.0748664,231.499916 L69.0786116,242.966523 L93.6710299,255.550814 L93.6710299,255.550814 L93.1106582,245.762614 L94.7880123,245.201891 L93.9493353,243.801964 L88.6389675,242.68428 L86.9616134,240.445149 L83.8889715,240.166669 L81.6512457,239.048985 L81.9295511,235.13521 L84.4455823,231.778396 L82.4899227,229.260785 L81.3729403,219.751065 L78.8569091,219.751065 L77.7399267,217.794178 L78.8569091,216.39425 L79.6955862,214.437363 L79.6955862,208.845181 L81.6512457,207.166774 L80.8125686,203.531479 L83.8852106,202.692276 L83.0465335,198.778501 L84.7238876,197.100094 L81.9295511,195.143206 L83.0465335,190.947188 L83.3248389,189.829504 L80.5305024,187.033413 L81.3691794,186.47269 L80.252197,185.072763 L81.3691794,183.394355 L79.9701307,181.158988 L82.2040956,178.362897 L81.9257902,176.96297 L82.7644673,176.123766 L85.5588038,174.723839 L86.6757863,175.002319 L88.6314458,168.849414 L86.1154146,168.570933 L84.9984322,166.614046 L83.8814497,166.614046 L83.321078,165.774842 L87.232397,160.18266 L88.9097512,155.147439 L84.1597551,150.39446 L80.5267415,147.876849 L81.6437239,147.598369 L84.4380605,143.123871 L84.7163659,141.445464 L93.6597472,129.421896 L93.6597472,129.421896 M116.371724,265.666417 L93.6747908,255.547051 L93.6747908,255.547051 M157.113376,157.390333 L148.74541,175.269509 L148.726606,175.288326 L176.395427,216.11577 L185.338808,218.351138 L189.810499,227.582378 L225.584025,241.005873 L220.608375,291.708072 L220.958138,291.986552 L221.236443,292.265032 L232.571746,293.574641 L250.180204,294.413845 L264.031538,294.692325 M140.903968,416.346745 L169.968077,295.817535 L170.283991,292.426852 L170.806754,292.182241 L172.623261,284.877782 L172.762413,284.633171 L172.762413,284.354691 L155.436022,279.31947 L134.754923,272.888084 L114.634195,265.056771 L114.495043,265.493308 L114.077585,265.335251 L85.2917811,335.527296 L85.6415433,335.316555 L87.2474406,336.92346 L88.5750325,337.796533 L86.1304581,339.177644 L88.9586427,342.549511 L88.4358798,343.407531 L91.2828688,344.822511 L90.1997343,347.076695 L93.3250286,351.009286 L93.0805712,355.781081 L95.088883,357.196061 L95.1603398,360.150208 L96.60828,360.850172 L98.6353963,363.804319 L98.7068531,367.021893 L101.29058,367.73691 L101.079971,372.629128 L103.088283,376.422479 L104.468527,378.729348 L103.874307,381.036218 L106.371534,385.299974 L108.853717,388.167567 L108.259498,393.55277 L106.563339,400.055658 L108.763456,404.319414 L109.041761,407.676229 M211.05197,427.809589 L214.963289,340.558755 L217.043058,322.626893 L218.317997,314.833212 L217.949431,314.693972 L217.915583,315.06277 L217.949431,314.693972 L220.551962,292.182241 L213.56424,291.621517 L194.838801,288.825426 L172.758653,284.350928 L172.758653,284.350928 M302.633248,331.030219 L302.685901,331.033982 L302.877706,330.928611 L302.791205,331.033982 L303.001815,331.052798 L302.776162,331.368911 L274.216011,369.087915 L261.917922,381.950686 L261.639616,425.679593 L261.361311,425.626907 L261.361311,430.3272 M444.377193,451.0401 L444.411041,451.021284 L443.294058,446.546786 L442.733687,444.029175 L438.540301,443.750695 L430.713902,449.342877 L428.705591,450.445508 L427.114737,450.915913 L423.726181,450.182081 L422.048826,447.107509 L418.415813,447.668233 L414.222428,444.872142 L405.000741,445.150622 L399.690373,442.076051 L394.940377,437.323073 L392.984717,432.570094 C389.073398,417.840753 385.158319,403.115176 381.247,388.385835 M475.754245,405.933846 L479.627955,393.13505 L496.014126,388.604103 M437.193905,248.058194 L453.636488,261.699957 L451.120457,264.217567 L453.354422,267.013658 L451.677068,269.249026 L452.23744,270.927433 L456.70913,272.884321 L459.225162,273.445044 L460.902516,275.962655 L460.342144,277.919542 L462.019498,278.758746 L461.180821,280.715633 L463.136481,282.672521 L461.737432,285.190132 L465.370445,287.986223 L463.971397,287.986223 L466.209123,291.621517 L469.003459,290.782314 L468.164782,292.182241 L471.797796,296.656739 L470.680813,297.774423 L473.196844,297.213699 L473.757216,300.00979 L475.43457,303.645085 L473.757216,304.484289 L476.273247,307.001899 L473.478911,308.119583 L471.523251,307.28038 L469.285525,308.958787 L467.608171,307.55886 L463.696852,311.472634 L458.108179,310.911911 L453.358183,308.955024 L456.712891,312.590318 L456.991197,315.386409 L450.285541,312.868798 L451.962895,315.104166 L455.317603,317.339533 L454.200621,319.578664 L451.406284,321.535552 L453.922316,323.213959 L453.64401,325.73157 L459.232683,329.927588 L460.349666,329.366864 L463.422308,333.841363 L461.188343,335.24129 L462.587392,336.919697 L467.059082,338.598104 L467.619454,337.48042 L466.220405,335.245053 L467.619454,333.288166 L470.692096,336.64498 L470.41379,337.762664 L471.812839,339.441071 L470.974162,340.840998 L472.091145,342.240925 L472.929822,340.840998 L474.885481,342.240925 L478.518495,341.401722 L478.7968,340.001795 L482.708119,343.076366 L485.22415,341.958682 L487.740182,344.194049 L489.695841,341.958682 L487.740182,336.92346 L486.901504,333.009685 L485.502456,330.774318 L485.502456,328.813667 L486.901504,326.017576 L488.857164,327.13526 L486.341133,329.652871 L486.619438,331.331278 L490.252452,333.848889 L491.369434,335.805776 L534.408987,309.51951 L538.482024,314.953636 M527.417504,400.966363 L524.062796,407.676229 M208.818005,130.076701 L200.713301,166.057086 L171.404734,157.209697 M215.151333,108.076771 L217.144602,98.3337294 M218.814434,90.1637246 L219.356001,87.5106369 M223.812648,68.5815148 L222.977732,70.4179783 M224.775435,65.2886754 L226.32868,59.9787368"/></g></svg>