<svg xmlns="http://www.w3.org/2000/svg" xmlns:xlink="http://www.w3.org/1999/xlink" width="402" height="402" viewBox="0 0 402 402"><defs><circle id="a" cx="200" cy="200" r="200"/></defs><g fill="none" fill-rule="evenodd" transform="translate(1 1)"><mask id="b" fill="#fff"><use xlink:href="#a"/></mask><g mask="url(#b)"><g transform="translate(-110.76 -125.943)"><g transform="translate(215.36 197.946)"><polygon stroke="#FFF" points="54.953 208.844 54.953 253.941 76.897 253.941 76.897 274.803 109.965 274.803 109.965 253.941 131.908 253.941 131.908 208.844"/><path stroke="#FFF" d="M93.6812107,-1.39650695e-14 C145.155267,0.127751572 186.851415,39.8191824 186.851415,88.7283805 C186.851415,110.908019 178.282233,131.191038 164.121462,146.737421 C155.621069,156.073113 145.106132,163.698899 133.225236,169.025157 L133.225236,186.861242 L102.191431,186.861242 L102.191431,112.863601 C110.121855,109.630503 115.683962,102.152123 115.683962,93.4257075 C115.683962,81.7511792 105.729167,72.2877358 93.4257075,72.2877358 C81.1222484,72.2877358 71.1674528,81.7511792 71.1674528,93.4257075 C71.1674528,102.142296 76.7295597,109.630503 84.6599843,112.863601 L84.6599843,186.861242 L53.6261792,186.861242 L53.6261792,169.025157 C21.9339623,154.834906 0,124.213836 0,88.7283805 C0,39.8191824 41.6961478,0.127751572 93.1702044,-1.39650695e-14 L93.6910377,-1.39650695e-14"/></g><path stroke="#FFFFFD" stroke-width=".25" d="M26.0424195,30.7636558 L25.6886459,31.1469105 C-9.21701447,68.98103 -8.46033208,126.538027 27.4083786,159.792744 C53.4303912,183.927964 90.8026396,188.654772 122.75036,175.06397 L135.830155,187.190543 L156.928819,164.431109 L102.663882,114.116643 C94.900517,117.732995 85.6336145,116.730637 79.2362088,110.795102 C70.6768535,102.854851 70.5196208,89.1068162 78.8726082,80.1052439 C87.2255956,71.1036715 100.944149,70.2192376 109.503504,78.1594891 C115.90091,84.0851967 117.600989,93.2538288 114.574259,101.272697 L168.839196,151.587162 L189.93786,128.827728 L176.858064,116.701156 C188.001932,83.8100394 180.464589,46.9094891 154.442577,22.774269 C118.573866,-10.480448 61.1249667,-6.8935769 26.0325925,30.7636558" transform="translate(399.243 90.119)"/><path stroke="#FFFFFD" stroke-width=".25" d="M152.820362,167.000786 L153.213443,166.65684 C191.863208,132.655267 197.101022,75.3341195 164.887972,38.5318396 C141.509434,11.821934 104.844733,3.23309748 71.648978,13.4237421 L59.9056604,0 L36.5467767,20.4402516 L85.2790881,76.120283 C93.3765723,73.3294025 102.486242,75.2948113 108.235063,81.8592767 C115.919811,90.6446541 114.652123,104.333726 105.404874,112.421384 C96.1576258,120.509041 82.4194182,119.958726 74.7346698,111.173349 C68.9956761,104.608884 68.2488208,95.322327 72.091195,87.6572327 L23.3588836,31.9870283 L0,52.4272799 L11.7433176,65.851022 C-2.76139937,97.4056604 0.894261006,134.886006 24.2727987,161.595912 C56.4858491,198.408019 113.993711,200.805818 152.820362,167.010613" transform="translate(40.9 82.97)"/><path stroke="#FFFFFD" stroke-width=".25" d="M96.5133793,188.227201 L97.0342127,188.207547 C148.468961,186.134041 188.63209,144.909591 186.784606,96.0298742 C185.448128,60.5640723 162.364401,30.797956 130.161178,17.8164308 L129.492939,0 L98.4787882,1.16941824 L101.269669,75.1080975 C109.318018,78.0365566 115.155282,85.3085692 115.489401,94.0153302 C115.931618,105.680031 106.320769,115.516903 94.0467913,115.978774 C81.7531592,116.440645 71.44459,107.360456 71.0023731,95.6957547 C70.6780806,86.9791667 75.9453762,79.2944182 83.7578762,75.7665094 L80.9669957,1.82783019 L49.9528448,2.99724843 L50.6210837,20.8136792 C19.4890083,36.1930031 -1.27553575,67.6100629 0.060942239,103.075865 C1.90842652,151.955582 45.0688039,190.035377 96.5133793,188.227201" transform="translate(220.605)"/><line x1="481.771" x2="376.327" y1="441.608" y2="348.408" stroke="#FFFFFD" stroke-width=".25"/><line x1="242.944" x2="130.582" y1="349.558" y2="448.88" stroke="#FFFFFD" stroke-width=".25"/><line x1="400.029" x2="512.264" y1="304.363" y2="304.363" stroke="#FFFFFD" stroke-width=".25"/><line x1="105.218" x2="217.453" y1="304.658" y2="304.658" stroke="#FFFFFD" stroke-width=".25"/><line x1="485.25" x2="379.805" y1="135.721" y2="228.931" stroke="#FFFFFD" stroke-width=".25"/><line x1="242.512" x2="130.14" y1="223.428" y2="124.096" stroke="#FFFFFD" stroke-width=".25"/><path stroke="#FFFFFD" stroke-width=".25" d="M26.7728223,29.1555396 C26.6352437,29.3029453 26.5074921,29.4405239 26.4092217,29.5486214 C-9.18433181,68.1295962 -8.75194187,126.521892 27.4214072,160.061593 C53.6694418,184.393354 91.5133883,188.982584 123.991769,175.008527 L137.179662,187.23337 L158.700888,164.021892 L103.983907,113.284863 C84.6246305,111.683055 80.2319418,110.690524 80.2515959,110.051766 C80.3007311,108.852867 96.0043474,111.830461 104.544049,103.231797 C113.61441,94.1024736 109.634457,76.9051465 111.118341,76.7577408 C111.865196,76.6889515 113.260637,80.9538886 116.130134,100.175587 L170.847115,150.912615 L192.368341,127.701137 L179.180448,115.476294 C189.469363,79.8630868 181.253954,42.5104924 156.990983,20.3112 C118.459143,-14.938407 53.3451493,0.725901225 26.7728223,29.1457125 L26.7728223,29.1555396 Z" transform="translate(427.07 284.956)"/><path stroke="#FFFFFD" stroke-width=".25" d="M165.595519,29.1555396 C165.733097,29.3029453 165.860849,29.4405239 165.959119,29.5486214 C201.552673,68.1295962 201.120283,126.521892 164.946934,160.061593 C138.698899,184.393354 100.854953,188.982584 68.3765723,175.008527 L55.1886792,187.23337 L33.6674528,164.021892 L88.384434,113.284863 C107.743711,111.683055 112.136399,110.690524 112.116745,110.051766 C112.06761,108.852867 96.3639937,111.830461 87.8242925,103.231797 C78.7539308,94.1024736 82.7338836,76.9051465 81.25,76.7577408 C80.5031447,76.6889515 79.1077044,80.9538886 76.2382075,100.175587 L21.5212264,150.912615 L0,127.701137 L13.1878931,115.476294 C2.89897799,79.8630868 11.1143868,42.5104924 35.3773585,20.3112 C73.9091981,-14.938407 139.023192,0.725901225 165.595519,29.1457125 L165.595519,29.1555396 Z" transform="translate(0 286.499)"/><line x1="312.382" x2="312.451" y1="197.946" y2="125.943" stroke="#FFFFFD" stroke-width=".25"/></g></g><circle cx="200" cy="200" r="200" stroke="#FFF"/></g></svg>