<svg xmlns="http://www.w3.org/2000/svg" xmlns:xlink="http://www.w3.org/1999/xlink" viewBox="0 0 402 402"><defs><circle id="a" cx="200" cy="200" r="200"/></defs><g fill="none" fill-rule="evenodd" opacity=".61" transform="translate(1 1)"><mask id="b" fill="#fff"><use xlink:href="#a"/></mask><g mask="url(#b)"><g transform="translate(-24.302 -125.04)"><g transform="translate(300.285 405.572)"><rect width="128.97" height="128.97" stroke="#FFFFFD" stroke-width=".25"/><rect width="128.97" height="128.97" x="24.725" y="17.453" stroke="#FFFFFD" stroke-width=".25"/><line x2="24.725" y2="17.453" stroke="#FFFFFD" stroke-width=".25"/></g><g transform="translate(340.3 1.297)"><g stroke="#FFFFFD" stroke-width=".25" transform="translate(0 257.95)"><rect width="128.97" height="128.97"/><rect width="128.97" height="128.97" x="24.725" y="17.453"/><line x2="24.725" y2="17.453"/><line x2="24.725" y1="128.97" y2="146.423"/></g><g stroke="#FFFFFD" stroke-width=".25" transform="translate(0 128.97)"><rect width="128.97" height="128.97"/><rect width="128.97" height="128.97" x="24.725" y="17.453"/><line x2="24.725" y2="17.453"/><polyline points="0 128.98 24.725 146.433 153.695 275.403"/></g><g stroke="#FFFFFD" stroke-width=".25"><rect width="128.97" height="128.97"/><rect width="128.97" height="128.97" x="24.725" y="17.453"/><line x2="24.725" y1="128.97" y2="146.423"/></g></g><g stroke="#FFFFFD" stroke-width=".25" transform="translate(128.97 386.91)"><rect width="128.97" height="128.97"/><rect width="128.97" height="128.97" x="24.735" y="17.453"/><line x2="24.735" y2="17.453"/><line x2="24.735" y1="128.98" y2="146.433"/><line x1="128.98" x2="153.705" y2="17.453"/><line x1="128.98" x2="153.705" y1="128.98" y2="146.433"/></g><g stroke="#FFFFFD" stroke-width=".25" transform="translate(0 288.316)"><rect width="128.97" height="128.97"/><rect width="128.97" height="128.97" x="24.725" y="17.453"/><line x2="24.725" y2="17.453"/><line x2="24.725" y1="128.97" y2="146.423"/><line x1="128.97" x2="153.705" y2="17.453"/><line x1="128.97" x2="153.705" y1="128.97" y2="146.423"/></g><g stroke="#FFFFFD" stroke-width=".25" transform="translate(128.97 257.94)"><polyline points="0 0 0 128.97 128.98 128.97 128.98 93.21"/><polyline points="24.735 17.453 24.735 146.423 153.705 146.423 153.705 94.458"/><line x2="24.735" y2="17.453"/><line x2="24.735" y1="128.97" y2="146.423"/><line x1="128.98" x2="153.705" y1="128.97" y2="146.423"/></g><g stroke="#FFFFFD" stroke-width=".25" transform="translate(0 159.346)"><rect width="128.97" height="128.97"/><rect width="128.97" height="128.97" x="24.725" y="17.453"/><line x2="24.725" y2="17.453"/><polyline points="0 128.97 24.725 146.423 153.705 275.393"/><line x1="128.97" x2="153.705" y2="17.453"/><line x1="128.97" x2="153.705" y1="128.97" y2="146.423"/></g><g stroke="#FFFFFD" stroke-width=".25" transform="translate(128.97 128.97)"><polyline points="128.98 121.669 128.98 0 0 0 0 128.97 61.114 128.97"/><path d="M131.623428,122.159984 C132.389937,119.752358 134.375,114.632469 139.298349,110.112028 C144.78184,105.090409 150.756682,103.685142 153.233097,103.252752 C153.39033,103.174135 153.547563,103.095519 153.704796,103.016903 L153.704796,17.4528302 L24.7346698,17.4528302 L24.7346698,146.422956 L68.9268868,146.422956 L69.2610063,145.499214"/><line x2="24.735" y2="17.453"/><line x2="24.735" y1="128.97" y2="146.423"/><line x1="128.98" x2="153.705" y2="17.453"/></g><g stroke="#FFFFFD" stroke-width=".25" transform="translate(0 30.375)"><rect width="128.97" height="128.97"/><rect width="128.97" height="128.97" x="24.725" y="17.443"/><line x2="24.725" y1="128.97" y2="146.423"/><line x1="128.97" x2="153.705" y1="128.97" y2="146.423"/></g><g stroke="#FFFFFD" stroke-width=".25" transform="translate(128.97)"><rect width="128.97" height="128.97"/><rect width="128.97" height="128.97" x="24.735" y="17.443"/><polyline points="0 128.97 24.735 146.423 153.705 17.443 128.98 0"/><line x1="128.98" x2="153.705" y1="128.97" y2="146.423"/></g><path stroke="#FFF" stroke-width="1.2" d="M113.19772,0.00982704403 L72.8478774,40.3596698 C77.8301887,41.6863208 82.6061321,44.2610063 86.5959119,48.2409591 C97.9363208,59.5813679 98.5554245,77.3781447 87.9618711,87.9716981 C82.9009434,93.0326258 76.1988994,95.538522 69.3494497,95.538522 C61.8415881,95.538522 54.1568396,92.5412736 48.221305,86.605739 C44.2413522,82.6257862 41.6666667,77.8400157 40.3400157,72.8675314 L2.7930139e-14,113.207547 L121.255896,234.47327 L161.63522,194.093947 C155.227987,192.393868 149.204009,188.63011 144.870283,182.792846 C135.318396,169.929245 137.490173,152.446934 149.73467,143.759827 C154.323899,140.497248 159.679638,138.944575 165.074686,138.944575 C174.086085,138.944575 183.225236,143.278302 189.190252,151.316824 C191.568396,154.52044 193.209513,158.009041 194.152909,161.566431 L234.453616,121.27555 L191.283412,78.1053459 C194.791667,77.4076258 198.162343,76.0023585 201.208726,73.8404088 C213.443396,65.1533019 215.625,47.6709906 206.073113,34.8073899 C200.108097,26.7688679 190.968947,22.4253145 181.957547,22.4253145 C176.5625,22.4253145 171.206761,23.9976415 166.627358,27.2503931 C161.094733,31.1713836 157.635613,36.9005503 156.367925,43.1800314 L113.187893,0 L113.19772,0.00982704403 Z" transform="translate(103.734 209.935)"/></g></g><circle cx="200" cy="200" r="200" stroke="#FFF"/></g></svg>