<svg xmlns="http://www.w3.org/2000/svg" xmlns:xlink="http://www.w3.org/1999/xlink" width="402" height="402" viewBox="0 0 402 402"><defs><circle id="a" cx="200" cy="200" r="200"/></defs><g fill="none" fill-rule="evenodd" transform="translate(1 1)"><mask id="b" fill="#fff"><use xlink:href="#a"/></mask><g mask="url(#b)"><g transform="translate(-15.104 -7.98)"><path stroke="#FFF" d="M323.181997,232.753538 L323.181997,189.524371 L296.295204,189.524371 C294.487028,182.8125 291.784591,176.306997 288.246855,170.135613 L307.272013,151.110456 L276.709906,120.548349 L257.684748,139.573506 C251.513365,136.03577 245.007862,133.333333 238.295991,131.525157 L238.295991,104.638365 L195.066824,104.638365 L195.066824,131.525157 C188.354953,133.333333 181.84945,136.03577 175.678066,139.573506 L156.652909,120.548349 L126.090802,151.110456 L145.115959,170.135613 C141.578223,176.306997 138.875786,182.8125 137.06761,189.524371 L110.180818,189.524371 L110.180818,232.753538 L137.06761,232.753538 C138.875786,239.465409 141.578223,245.970912 145.115959,252.142296 L126.090802,271.167453 L156.652909,301.72956 L175.678066,282.704403 C181.84945,286.242138 188.354953,288.944575 195.066824,290.752752 L195.066824,317.639544 L238.295991,317.639544 L238.295991,290.752752 C245.007862,288.944575 251.513365,286.242138 257.684748,282.704403 L276.709906,301.72956 L307.272013,271.167453 L288.246855,252.142296 C291.784591,245.970912 294.487028,239.465409 296.295204,232.753538 L323.181997,232.753538 Z M165.782233,211.143868 C165.782233,183.028695 188.571148,160.23978 216.686321,160.23978 C244.801494,160.23978 267.590409,183.028695 267.590409,211.143868 C267.590409,239.259041 244.801494,262.047956 216.686321,262.047956 C188.571148,262.047956 165.782233,239.259041 165.782233,211.143868"/><g transform="translate(339.574 173.359)"><line x1="33.844" x2="16.392" y1="168.622" y2="149.99" stroke="#FFFFFD" stroke-width=".25"/><circle cx="33.844" cy="168.622" r="1.877" fill="#FFF" fill-rule="nonzero" stroke="#FFF" stroke-width=".25"/><line x1="54.255" x2="56.673" y1="1.877" y2="27.28" stroke="#FFFFFD" stroke-width=".25"/><circle cx="54.255" cy="1.877" r="1.877" fill="#FFF" fill-rule="nonzero" stroke="#FFF" stroke-width=".25"/><line x1="87.205" x2="63.895" y1="31.191" y2="41.578" stroke="#FFFFFD" stroke-width=".25"/><polyline stroke="#FFFFFD" stroke-width=".25" points="63.257 40.782 56.319 27.015 44.232 51.887"/><path stroke="#FFFFFD" stroke-width=".25" d="M64.1018082,41.5290881 C57.2720126,45.0373428 50.442217,48.5357704 43.6222484,52.0440252"/><circle cx="63.483" cy="41.686" r="2.231" fill="#FFF" fill-rule="nonzero" stroke="#FFF" stroke-width=".25"/><line x1="16.392" x2="2.3" y1="149.99" y2="157.301" stroke="#FFFFFD" stroke-width=".25"/><circle cx="2.3" cy="157.301" r="2.3" fill="#FFF" fill-rule="nonzero" stroke="#FFF" stroke-width=".25"/><polygon stroke="#FFFFFD" stroke-width=".25" points="31.879 116.608 16.431 149.322 19.29 99.518"/><line x1="43.73" x2="20.961" y1="52.476" y2="98.87" stroke="#FFFFFD" stroke-width=".25"/><circle cx="16.392" cy="149.99" r="2.231" fill="#FFF" fill-rule="nonzero" stroke="#FFF" stroke-width=".25"/><circle cx="20.715" cy="99.715" r="3.056" fill="#FFF" fill-rule="nonzero" stroke="#FFF" stroke-width=".25"/><ellipse cx="43.424" cy="52.075" fill="#FFF" fill-rule="nonzero" stroke="#FFF" stroke-width=".25" rx="2.712" ry="2.624" transform="rotate(-89.79 43.424 52.075)"/><circle cx="32.174" cy="117.728" r="3.764" fill="#FFF" fill-rule="nonzero" stroke="#FFF" stroke-width=".25"/><circle cx="56.673" cy="26.916" r="2.231" fill="#FFF" fill-rule="nonzero" stroke="#FFF" stroke-width=".25"/></g><circle cx="355.975" cy="306.466" r="3.764" fill="#FFF" fill-rule="nonzero" stroke="#FFF" stroke-width=".25"/><polyline stroke="#FFFFFD" stroke-width=".25" points="375.265 242.718 343.436 170.725 344.919 219.644 312.235 273.211 296.148 349.577 180.199 386.851"/><polyline stroke="#FFFFFD" stroke-width=".25" points="353.656 193.838 395.273 82.331 289.544 50.737 322.602 102.594"/><polyline stroke="#FFFFFD" stroke-width=".25" points="322.268 158.206 343.436 170.725 362.225 171.904"/><line x1="312.235" x2="276.612" y1="273.211" y2="355.71" stroke="#FFFFFD" stroke-width=".25"/><line x1="296.148" x2="306.338" y1="349.577" y2="373.575" stroke="#FFFFFD" stroke-width=".25"/><circle cx="311.842" cy="274.46" r="3.764" fill="#FFF" fill-rule="nonzero" stroke="#FFF" stroke-width=".25"/><circle cx="344.34" cy="171.698" r="3.076" fill="#FFF" fill-rule="nonzero" stroke="#FFF" stroke-width=".25"/><circle cx="276.366" cy="355.022" r="3.076" fill="#FFF" fill-rule="nonzero" stroke="#FFF" stroke-width=".25"/><circle cx="295.745" cy="350.187" r="1.926" fill="#FFF" fill-rule="nonzero" stroke="#FFF" stroke-width=".25"/><circle cx="306.26" cy="373.408" r="1.926" fill="#FFF" fill-rule="nonzero" stroke="#FFF" stroke-width=".25"/><circle cx="321.787" cy="158.648" r="1.926" fill="#FFF" fill-rule="nonzero" stroke="#FFF" stroke-width=".25"/><circle cx="354.108" cy="193.455" r="1.926" fill="#FFF" fill-rule="nonzero" stroke="#FFF" stroke-width=".25"/><circle cx="345.204" cy="219.192" r="1.926" fill="#FFF" fill-rule="nonzero" stroke="#FFF" stroke-width=".25"/><circle cx="289.023" cy="50.039" r="3.764" fill="#FFF" fill-rule="nonzero" stroke="#FFF" stroke-width=".25"/><circle cx="322.121" cy="102.437" r="1.926" fill="#FFF" fill-rule="nonzero" stroke="#FFF" stroke-width=".25"/><line x1="361.822" x2="396.01" y1="171.197" y2="146.472" stroke="#FFFFFD" stroke-width=".25"/><circle cx="361.498" cy="171.659" r="1.926" fill="#FFF" fill-rule="nonzero" stroke="#FFF" stroke-width=".25"/><circle cx="395.814" cy="145.961" r="1.926" fill="#FFF" fill-rule="nonzero" stroke="#FFF" stroke-width=".25"/><circle cx="180.199" cy="386.851" r="3.076" fill="#FFF" fill-rule="nonzero" stroke="#FFF" stroke-width=".25"/><line x1="58.893" x2="139.151" y1="353.489" y2="284.611" stroke="#FFFFFD" stroke-width=".25"/><line x1="63.787" x2="137.647" y1="69.851" y2="138.247" stroke="#FFFFFD" stroke-width=".25"/><line x1="183.943" x2="135.397" y1="134.513" y2="16.372" stroke="#FFFFFD" stroke-width=".25"/><line x1="146.276" x2="184.935" y1="400.501" y2="287.009" stroke="#FFFFFD" stroke-width=".25"/><line x1="7.41" x2="136.026" y1="151.72" y2="189.524" stroke="#FFFFFD" stroke-width=".25"/><line x2="137.244" y1="265.438" y2="233.461" stroke="#FFFFFD" stroke-width=".25"/><line x1="222.533" x2="222.533" y2="104.638" stroke="#FFFFFD" stroke-width=".25"/></g></g><circle cx="200" cy="200" r="200" stroke="#FFF"/></g></svg>