<svg xmlns="http://www.w3.org/2000/svg" viewBox="0 0 53 50"><path fill="#FF00E4" d="M31,55.9358289 L31,80 L53.4282116,80 L53.4282116,54.3315508 L44.884131,54.3315508 L44.884131,52.7272727 C44.884131,49.1622103 45.5071369,46.4884135 46.7531486,44.7058824 C47.9991604,42.9233512 50.2241814,41.8538324 53.4282116,41.4973262 L53.4282116,30 C45.418136,30.1782531 39.6775819,32.3841355 36.2065491,36.6176471 C32.7355164,40.8511586 31,47.2905526 31,55.9358289 Z M61.5717884,55.9358289 L61.5717884,80 L84,80 L84,54.3315508 L75.4559194,54.3315508 L75.4559194,52.7272727 C75.4559194,49.1622103 76.0789253,46.4884135 77.324937,44.7058824 C78.5709488,42.9233512 80.7959698,41.8538324 84,41.4973262 L84,30 C75.9899244,30.1782531 70.2493703,32.3841355 66.7783375,36.6176471 C63.3073048,40.8511586 61.5717884,47.2905526 61.5717884,55.9358289 Z" transform="translate(-31 -30)" class="quote--svg"/></svg>