<svg xmlns="http://www.w3.org/2000/svg" viewBox="0 0 48 34"><path fill="#FF00E4" d="M40.12,0 L7.88,0 C3.55495381,0.0644034026 0.0644034026,3.55495381 0,7.88 L0,26.12 C0.0644034026,30.4450462 3.55495381,33.9355966 7.88,34 L40.12,34 C44.4450462,33.9355966 47.9355966,30.4450462 48,26.12 L48,7.88 C47.9355966,3.55495381 44.4450462,0.0644034026 40.12,0 Z M33.08,17 L19.54,25.72 C19.3817527,25.8297308 19.1924819,25.885811 19,25.88 C18.8324742,25.8808382 18.6674224,25.8395752 18.52,25.76 C18.2015918,25.5809457 18.0032473,25.2452858 18,24.88 L18,7.56 C18.0032473,7.19471423 18.2015918,6.85905429 18.52,6.68 C18.8332092,6.48911906 19.2267908,6.48911906 19.54,6.68 L33.08,15.34 C33.3651728,15.5242034 33.5374136,15.8405086 33.5374136,16.18 C33.5374136,16.5194914 33.3651728,16.8357966 33.08,17.02 L33.08,17 Z"/></svg>